<svg width="1579" height="731" viewBox="0 0 1579 731" fill="none" xmlns="http://www.w3.org/2000/svg">
<mask id="path-1-outside-1_803_4" maskUnits="userSpaceOnUse" x="38" y="35" width="1501" height="673" fill="black">
<rect fill="white" x="38" y="35" width="1501" height="673"/>
<path d="M367.531 573.59H41.457V426.373L367.531 38.7754H523.537V434.723H604.396V573.59H523.537V694H367.531V573.59ZM367.531 434.723V232.135L195.266 434.723H367.531ZM525.617 369.244C525.617 246.783 547.59 161.09 591.535 112.164C635.773 63.2383 703.01 38.7754 793.244 38.7754C836.604 38.7754 872.199 44.1953 900.031 55.0352C927.863 65.582 950.568 79.498 968.147 96.7832C985.725 113.775 999.494 131.793 1009.46 150.836C1019.71 169.586 1027.91 191.559 1034.06 216.754C1046.08 264.801 1052.08 314.898 1052.08 367.047C1052.08 483.941 1032.31 569.488 992.756 623.688C953.205 677.887 885.09 704.986 788.41 704.986C734.211 704.986 690.412 696.344 657.014 679.059C623.615 661.773 596.223 636.432 574.836 603.033C559.309 579.303 547.15 546.93 538.361 505.914C529.865 464.605 525.617 419.049 525.617 369.244ZM703.156 369.684C703.156 451.715 710.334 507.818 724.69 537.994C739.338 567.877 760.432 582.818 787.971 582.818C806.135 582.818 821.809 576.52 834.992 563.922C848.469 551.031 858.283 530.816 864.436 503.277C870.881 475.738 874.104 432.818 874.104 374.518C874.104 288.971 866.779 231.549 852.131 202.252C837.775 172.662 816.096 157.867 787.092 157.867C757.502 157.867 736.115 172.955 722.932 203.131C709.748 233.014 703.156 288.531 703.156 369.684ZM1298.94 573.59H972.863V426.373L1298.94 38.7754H1454.94V434.723H1535.8V573.59H1454.94V694H1298.94V573.59ZM1298.94 434.723V232.135L1126.67 434.723H1298.94Z"/>
</mask>
<path d="M367.531 573.59H370.531V570.59H367.531V573.59ZM41.457 573.59H38.457V576.59H41.457V573.59ZM41.457 426.373L39.1614 424.442L38.457 425.279V426.373H41.457ZM367.531 38.7754V35.7754H366.135L365.236 36.8441L367.531 38.7754ZM523.537 38.7754H526.537V35.7754H523.537V38.7754ZM523.537 434.723H520.537V437.723H523.537V434.723ZM604.396 434.723H607.396V431.723H604.396V434.723ZM604.396 573.59V576.59H607.396V573.59H604.396ZM523.537 573.59V570.59H520.537V573.59H523.537ZM523.537 694V697H526.537V694H523.537ZM367.531 694H364.531V697H367.531V694ZM367.531 434.723V437.723H370.531V434.723H367.531ZM367.531 232.135H370.531V223.976L365.246 230.191L367.531 232.135ZM195.266 434.723L192.98 432.779L188.777 437.723H195.266V434.723ZM367.531 573.59V570.59H41.457V573.59V576.59H367.531V573.59ZM41.457 573.59H44.457V426.373H41.457H38.457V573.59H41.457ZM41.457 426.373L43.7527 428.304L369.827 40.7067L367.531 38.7754L365.236 36.8441L39.1614 424.442L41.457 426.373ZM367.531 38.7754V41.7754H523.537V38.7754V35.7754H367.531V38.7754ZM523.537 38.7754H520.537V434.723H523.537H526.537V38.7754H523.537ZM523.537 434.723V437.723H604.396V434.723V431.723H523.537V434.723ZM604.396 434.723H601.396V573.59H604.396H607.396V434.723H604.396ZM604.396 573.59V570.59H523.537V573.59V576.59H604.396V573.59ZM523.537 573.59H520.537V694H523.537H526.537V573.59H523.537ZM523.537 694V691H367.531V694V697H523.537V694ZM367.531 694H370.531V573.59H367.531H364.531V694H367.531ZM367.531 434.723H370.531V232.135H367.531H364.531V434.723H367.531ZM367.531 232.135L365.246 230.191L192.98 432.779L195.266 434.723L197.551 436.666L369.817 234.078L367.531 232.135ZM195.266 434.723V437.723H367.531V434.723V431.723H195.266V434.723ZM591.535 112.164L589.31 110.152L589.303 110.159L591.535 112.164ZM900.031 55.0352L898.943 57.8306L898.955 57.8356L898.968 57.8405L900.031 55.0352ZM968.147 96.7832L966.043 98.9223L966.052 98.9313L966.062 98.9402L968.147 96.7832ZM1009.46 150.836L1006.8 152.226L1006.81 152.251L1006.82 152.275L1009.46 150.836ZM1034.06 216.754L1031.15 217.466L1031.15 217.474L1031.15 217.482L1034.06 216.754ZM574.836 603.033L577.362 601.415L577.354 601.403L577.346 601.391L574.836 603.033ZM538.361 505.914L535.423 506.518L535.425 506.531L535.428 506.543L538.361 505.914ZM724.69 537.994L721.98 539.283L721.988 539.299L721.996 539.315L724.69 537.994ZM834.992 563.922L837.065 566.091L837.066 566.09L834.992 563.922ZM864.436 503.277L861.515 502.594L861.511 502.608L861.508 502.623L864.436 503.277ZM852.131 202.252L849.432 203.561L849.44 203.578L849.448 203.594L852.131 202.252ZM722.932 203.131L725.676 204.342L725.681 204.332L722.932 203.131ZM525.617 369.244H528.617C528.617 246.958 550.595 162.233 593.767 114.169L591.535 112.164L589.303 110.159C544.585 159.946 522.617 246.608 522.617 369.244H525.617ZM591.535 112.164L593.76 114.176C637.244 66.0854 703.533 41.7754 793.244 41.7754V38.7754V35.7754C702.486 35.7754 634.303 60.3911 589.31 110.152L591.535 112.164ZM793.244 38.7754V41.7754C836.385 41.7754 871.577 47.1724 898.943 57.8306L900.031 55.0352L901.12 52.2397C872.822 41.2183 836.822 35.7754 793.244 35.7754V38.7754ZM900.031 55.0352L898.968 57.8405C926.49 68.2698 948.817 81.9829 966.043 98.9223L968.147 96.7832L970.25 94.6441C952.32 77.0132 929.237 62.8942 901.094 52.2298L900.031 55.0352ZM968.147 96.7832L966.062 98.9402C983.44 115.739 997.004 133.504 1006.8 152.226L1009.46 150.836L1012.11 149.445C1001.98 130.082 988.009 111.811 970.232 94.6262L968.147 96.7832ZM1009.46 150.836L1006.82 152.275C1016.93 170.753 1025.05 192.472 1031.15 217.466L1034.06 216.754L1036.98 216.042C1030.78 190.645 1022.49 168.418 1012.09 149.396L1009.46 150.836ZM1034.06 216.754L1031.15 217.482C1043.1 265.278 1049.08 315.131 1049.08 367.047H1052.08H1055.08C1055.08 314.666 1049.05 264.323 1036.97 216.026L1034.06 216.754ZM1052.08 367.047H1049.08C1049.08 483.726 1029.32 568.492 990.333 621.919L992.756 623.688L995.179 625.456C1035.29 570.485 1055.08 484.157 1055.08 367.047H1052.08ZM992.756 623.688L990.333 621.919C951.567 675.043 884.579 701.986 788.41 701.986V704.986V707.986C885.601 707.986 954.844 680.731 995.179 625.456L992.756 623.688ZM788.41 704.986V701.986C734.494 701.986 691.219 693.383 658.393 676.394L657.014 679.059L655.635 681.723C689.606 699.304 733.928 707.986 788.41 707.986V704.986ZM657.014 679.059L658.393 676.394C625.488 659.365 598.481 634.395 577.362 601.415L574.836 603.033L572.31 604.651C593.964 638.468 621.743 664.182 655.635 681.723L657.014 679.059ZM574.836 603.033L577.346 601.391C562.094 578.08 550.04 546.097 541.295 505.285L538.361 505.914L535.428 506.543C544.261 547.762 556.524 580.526 572.326 604.676L574.836 603.033ZM538.361 505.914L541.3 505.31C532.851 464.232 528.617 418.881 528.617 369.244H525.617H522.617C522.617 419.216 526.879 464.979 535.423 506.518L538.361 505.914ZM703.156 369.684H700.156C700.156 410.775 701.953 445.445 705.564 473.665C709.169 501.846 714.604 523.777 721.98 539.283L724.69 537.994L727.399 536.705C720.419 522.035 715.088 500.827 711.515 472.904C707.948 445.021 706.156 410.623 706.156 369.684H703.156ZM724.69 537.994L721.996 539.315C729.479 554.58 738.705 566.228 749.762 574.06C760.85 581.914 773.623 585.818 787.971 585.818V582.818V579.818C774.78 579.818 763.236 576.252 753.23 569.164C743.193 562.055 734.549 551.291 727.383 536.674L724.69 537.994ZM787.971 582.818V585.818C806.91 585.818 823.325 579.22 837.065 566.091L834.992 563.922L832.92 561.753C820.292 573.82 805.359 579.818 787.971 579.818V582.818ZM834.992 563.922L837.066 566.09C851.138 552.63 861.144 531.771 867.363 503.931L864.436 503.277L861.508 502.623C855.423 529.862 845.8 549.433 832.919 561.754L834.992 563.922ZM864.436 503.277L867.357 503.961C873.885 476.068 877.104 432.86 877.104 374.518H874.104H871.104C871.104 432.777 867.877 475.408 861.515 502.594L864.436 503.277ZM874.104 374.518H877.104C877.104 331.671 875.27 295.792 871.586 266.911C867.909 238.081 862.363 216.008 854.814 200.91L852.131 202.252L849.448 203.594C856.547 217.793 861.988 239.079 865.635 267.671C869.275 296.212 871.104 331.817 871.104 374.518H874.104ZM852.131 202.252L854.83 200.942C847.481 185.794 838.164 174.244 826.796 166.485C815.405 158.712 802.131 154.867 787.092 154.867V157.867V160.867C801.057 160.867 813.124 164.419 823.414 171.441C833.725 178.478 842.425 189.12 849.432 203.561L852.131 202.252ZM787.092 157.867V154.867C771.762 154.867 758.394 158.785 747.13 166.732C735.887 174.664 726.938 186.468 720.183 201.93L722.932 203.131L725.681 204.332C732.109 189.618 740.445 178.791 750.589 171.634C760.712 164.493 772.832 160.867 787.092 160.867V157.867ZM722.932 203.131L720.187 201.92C706.719 232.448 700.156 288.558 700.156 369.684H703.156H706.156C706.156 288.505 712.777 233.58 725.676 204.342L722.932 203.131ZM1298.94 573.59H1301.94V570.59H1298.94V573.59ZM972.863 573.59H969.863V576.59H972.863V573.59ZM972.863 426.373L970.568 424.442L969.863 425.279V426.373H972.863ZM1298.94 38.7754V35.7754H1297.54L1296.64 36.8441L1298.94 38.7754ZM1454.94 38.7754H1457.94V35.7754H1454.94V38.7754ZM1454.94 434.723H1451.94V437.723H1454.94V434.723ZM1535.8 434.723H1538.8V431.723H1535.8V434.723ZM1535.8 573.59V576.59H1538.8V573.59H1535.8ZM1454.94 573.59V570.59H1451.94V573.59H1454.94ZM1454.94 694V697H1457.94V694H1454.94ZM1298.94 694H1295.94V697H1298.94V694ZM1298.94 434.723V437.723H1301.94V434.723H1298.94ZM1298.94 232.135H1301.94V223.976L1296.65 230.191L1298.94 232.135ZM1126.67 434.723L1124.39 432.779L1120.18 437.723H1126.67V434.723ZM1298.94 573.59V570.59H972.863V573.59V576.59H1298.94V573.59ZM972.863 573.59H975.863V426.373H972.863H969.863V573.59H972.863ZM972.863 426.373L975.159 428.304L1301.23 40.7067L1298.94 38.7754L1296.64 36.8441L970.568 424.442L972.863 426.373ZM1298.94 38.7754V41.7754H1454.94V38.7754V35.7754H1298.94V38.7754ZM1454.94 38.7754H1451.94V434.723H1454.94H1457.94V38.7754H1454.94ZM1454.94 434.723V437.723H1535.8V434.723V431.723H1454.94V434.723ZM1535.8 434.723H1532.8V573.59H1535.8H1538.8V434.723H1535.8ZM1535.8 573.59V570.59H1454.94V573.59V576.59H1535.8V573.59ZM1454.94 573.59H1451.94V694H1454.94H1457.94V573.59H1454.94ZM1454.94 694V691H1298.94V694V697H1454.94V694ZM1298.94 694H1301.94V573.59H1298.94H1295.94V694H1298.94ZM1298.94 434.723H1301.94V232.135H1298.94H1295.94V434.723H1298.94ZM1298.94 232.135L1296.65 230.191L1124.39 432.779L1126.67 434.723L1128.96 436.666L1301.22 234.078L1298.94 232.135ZM1126.67 434.723V437.723H1298.94V434.723V431.723H1126.67V434.723Z" fill="black" mask="url(#path-1-outside-1_803_4)"/>
</svg>
