<svg width="1615" height="764" viewBox="0 0 1615 764" fill="none" xmlns="http://www.w3.org/2000/svg">
<mask id="path-1-outside-1_689_3" maskUnits="userSpaceOnUse" x="-0.972656" y="-0.210938" width="1616" height="764" fill="black">
<rect fill="white" x="-0.972656" y="-0.210938" width="1616" height="764"/>
<path d="M2.99917 9.37011H353.748V101.579H236.068V382.789H120.68V101.579H2.99917V9.37011ZM273.159 382.789V9.37011H465.472C501.133 9.37011 528.388 12.4267 547.237 18.54C566.086 24.6533 581.285 36.0308 592.832 52.6724C604.379 69.1443 610.153 89.2672 610.153 113.041C610.153 133.758 605.738 151.673 596.907 166.787C588.077 181.73 575.936 193.872 560.483 203.212C550.633 209.155 537.133 214.08 519.982 217.985C533.737 222.57 543.756 227.155 550.039 231.74C554.284 234.797 560.398 241.335 568.379 251.354C576.53 261.373 581.964 269.099 584.681 274.533L640.465 382.789H510.048L448.406 268.675C440.595 253.901 433.632 244.306 427.519 239.891C419.198 234.118 409.773 231.231 399.245 231.231H389.056V382.789H273.159ZM389.056 160.674H437.708C442.972 160.674 453.161 158.975 468.274 155.579C475.916 154.051 482.114 150.145 486.869 143.862C491.793 137.579 494.255 130.362 494.255 122.211C494.255 110.154 490.435 100.899 482.793 94.4465C475.152 87.9936 460.802 84.7671 439.745 84.7671H389.056V160.674ZM772.821 321.147H641.386L623.301 382.789H505.365L645.716 9.37011H771.547L911.898 382.789H791.161L772.821 321.147ZM748.623 240.401L707.358 106.164L666.348 240.401H748.623ZM815.261 9.37011H923.008L1063.61 215.948V9.37011H1172.38V382.789H1063.61L923.772 177.74V382.789H815.261V9.37011ZM1094.34 259.25L1204.12 252.373C1206.5 270.203 1211.34 283.788 1218.64 293.128C1230.53 308.241 1247.51 315.798 1269.58 315.798C1286.06 315.798 1298.71 311.977 1307.54 304.335C1316.54 296.524 1321.04 287.524 1321.04 277.335C1321.04 267.656 1316.79 258.995 1308.3 251.354C1299.81 243.712 1280.11 236.495 1249.21 229.703C1198.6 218.325 1162.52 203.212 1140.95 184.362C1119.21 165.513 1108.35 141.485 1108.35 112.277C1108.35 93.088 1113.86 75.0029 1124.9 58.0216C1136.11 40.8704 1152.84 27.4552 1175.08 17.7759C1197.5 7.9267 1228.15 3.00212 1267.04 3.00212C1314.75 3.00212 1351.09 11.9173 1376.06 29.7477C1401.19 47.4082 1416.13 75.5972 1420.89 114.315L1312.12 120.683C1309.23 103.871 1303.12 91.6445 1293.78 84.003C1284.61 76.3614 1271.88 72.5406 1255.57 72.5406C1242.16 72.5406 1232.05 75.4274 1225.26 81.201C1218.47 86.8049 1215.07 93.6823 1215.07 101.833C1215.07 107.777 1217.88 113.126 1223.48 117.881C1228.91 122.805 1241.82 127.39 1262.2 131.636C1312.63 142.504 1348.72 153.541 1370.45 164.749C1392.36 175.787 1408.24 189.542 1418.08 206.014C1428.1 222.486 1433.11 240.91 1433.11 261.288C1433.11 285.231 1426.49 307.307 1413.25 327.515C1400 347.723 1381.49 363.091 1357.72 373.619C1333.94 383.978 1303.97 389.157 1267.8 389.157C1204.29 389.157 1160.31 376.931 1135.86 352.477C1111.4 328.024 1097.56 296.949 1094.34 259.25ZM29.7447 380.37H315.031V460.607H145.642V525.815H290.323V601.212H145.642V753.789H29.7447V380.37ZM228.073 567.334C228.073 506.371 245.055 458.909 279.017 424.946C312.98 390.983 360.273 374.002 420.896 374.002C483.048 374.002 530.935 390.729 564.558 424.182C598.181 457.465 614.993 504.164 614.993 564.278C614.993 607.92 607.606 643.75 592.832 671.769C578.228 699.619 557.001 721.355 529.152 736.978C501.473 752.431 466.916 760.157 425.481 760.157C383.368 760.157 348.471 753.449 320.791 740.034C293.282 726.619 270.951 705.392 253.8 676.354C236.649 647.316 228.073 610.976 228.073 567.334ZM343.461 567.844C343.461 605.542 350.424 632.627 364.348 649.099C378.443 665.571 397.547 673.807 421.66 673.807C446.453 673.807 465.642 665.741 479.227 649.609C492.812 633.476 499.605 604.523 499.605 562.749C499.605 527.598 492.472 501.956 478.208 485.824C464.114 469.522 444.925 461.371 420.642 461.371C397.377 461.371 378.698 469.607 364.603 486.079C350.509 502.551 343.461 529.806 343.461 567.844ZM544.083 753.789V380.37H736.396C772.057 380.37 799.312 383.427 818.161 389.54C837.01 395.653 852.209 407.031 863.756 423.672C875.303 440.144 881.077 460.267 881.077 484.041C881.077 504.758 876.662 522.673 867.831 537.787C859.001 552.73 846.859 564.872 831.406 574.212C821.557 580.155 808.057 585.08 790.906 588.985C804.661 593.57 814.68 598.155 820.963 602.74C825.208 605.797 831.322 612.335 839.303 622.354C847.454 632.373 852.888 640.099 855.605 645.533L911.388 753.789H780.972L719.33 639.675C711.518 624.901 704.556 615.306 698.443 610.891C690.122 605.118 680.697 602.231 670.169 602.231H659.98V753.789H544.083ZM659.98 531.674H708.632C713.896 531.674 724.085 529.975 739.198 526.579C746.84 525.051 753.038 521.145 757.792 514.862C762.717 508.579 765.179 501.362 765.179 493.211C765.179 481.154 761.359 471.899 753.717 465.446C746.075 458.994 731.726 455.767 710.669 455.767H659.98V531.674ZM812.714 380.37H964.527L1023.11 607.58L1081.44 380.37H1232.75V753.789H1138.5V469.013L1065.4 753.789H980.065L907.215 469.013V753.789H812.714V380.37ZM1176.61 380.37H1292.25V753.789H1176.61V380.37ZM1242.23 753.789V380.37H1434.54C1470.2 380.37 1497.46 383.427 1516.31 389.54C1535.16 395.653 1550.36 407.031 1561.9 423.672C1573.45 440.144 1579.22 460.267 1579.22 484.041C1579.22 504.758 1574.81 522.673 1565.98 537.787C1557.15 552.73 1545.01 564.872 1529.55 574.212C1519.71 580.155 1506.2 585.08 1489.05 588.985C1502.81 593.57 1512.83 598.155 1519.11 602.74C1523.36 605.797 1529.47 612.335 1537.45 622.354C1545.6 632.373 1551.04 640.099 1553.75 645.533L1609.54 753.789H1479.12L1417.48 639.675C1409.67 624.901 1402.7 615.306 1396.59 610.891C1388.27 605.118 1378.85 602.231 1368.32 602.231H1358.13V753.789H1242.23ZM1358.13 531.674H1406.78C1412.04 531.674 1422.23 529.975 1437.35 526.579C1444.99 525.051 1451.19 521.145 1455.94 514.862C1460.86 508.579 1463.33 501.362 1463.33 493.211C1463.33 481.154 1459.51 471.899 1451.86 465.446C1444.22 458.994 1429.87 455.767 1408.82 455.767H1358.13V531.674Z"/>
</mask>
<path d="M2.99917 9.37012V6.37012H-0.000834465V9.37012H2.99917ZM353.748 9.37012H356.748V6.37012H353.748V9.37012ZM353.748 101.579V104.579H356.748V101.579H353.748ZM236.068 101.579V98.5786H233.068V101.579H236.068ZM236.068 382.789V385.789H239.068V382.789H236.068ZM120.68 382.789H117.68V385.789H120.68V382.789ZM120.68 101.579H123.68V98.5786H120.68V101.579ZM2.99917 101.579H-0.000834465V104.579H2.99917V101.579ZM2.99917 9.37012V12.3701H353.748V9.37012V6.37012H2.99917V9.37012ZM353.748 9.37012H350.748V101.579H353.748H356.748V9.37012H353.748ZM353.748 101.579V98.5786H236.068V101.579V104.579H353.748V101.579ZM236.068 101.579H233.068V382.789H236.068H239.068V101.579H236.068ZM236.068 382.789V379.789H120.68V382.789V385.789H236.068V382.789ZM120.68 382.789H123.68V101.579H120.68H117.68V382.789H120.68ZM120.68 101.579V98.5786H2.99917V101.579V104.579H120.68V101.579ZM2.99917 101.579H5.99917V9.37012H2.99917H-0.000834465V101.579H2.99917ZM273.159 382.789H270.159V385.789H273.159V382.789ZM273.159 9.37012V6.37012H270.159V9.37012H273.159ZM592.832 52.6725L590.367 54.3827L590.371 54.3886L590.375 54.3945L592.832 52.6725ZM596.907 166.787L599.49 168.313L599.494 168.307L599.498 168.3L596.907 166.787ZM560.483 203.212L562.033 205.78L562.034 205.779L560.483 203.212ZM519.982 217.985L519.316 215.06L508.862 217.441L519.033 220.832L519.982 217.985ZM550.039 231.74L548.271 234.164L548.278 234.169L548.286 234.175L550.039 231.74ZM568.379 251.354L566.032 253.223L566.042 253.235L566.052 253.247L568.379 251.354ZM584.681 274.533L581.998 275.875L582.006 275.891L582.014 275.907L584.681 274.533ZM640.465 382.789V385.789H645.385L643.131 381.415L640.465 382.789ZM510.048 382.789L507.409 384.215L508.259 385.789H510.048V382.789ZM448.406 268.675L445.754 270.077L445.76 270.089L445.766 270.1L448.406 268.675ZM427.519 239.891L429.275 237.459L429.252 237.443L429.229 237.427L427.519 239.891ZM389.056 231.231V228.231H386.056V231.231H389.056ZM389.056 382.789V385.789H392.056V382.789H389.056ZM389.056 160.674H386.056V163.674H389.056V160.674ZM468.274 155.579L467.686 152.637L467.651 152.644L467.616 152.652L468.274 155.579ZM486.869 143.862L484.507 142.011L484.492 142.031L484.476 142.052L486.869 143.862ZM389.056 84.7671V81.7671H386.056V84.7671H389.056ZM273.159 382.789H276.159V9.37012H273.159H270.159V382.789H273.159ZM273.159 9.37012V12.3701H465.472V9.37012V6.37012H273.159V9.37012ZM465.472 9.37012V12.3701C501.027 12.3701 527.91 15.4257 546.312 21.3937L547.237 18.54L548.163 15.6863C528.866 9.4278 501.238 6.37012 465.472 6.37012V9.37012ZM547.237 18.54L546.312 21.3937C564.522 27.2997 579.185 38.2674 590.367 54.3827L592.832 52.6725L595.297 50.9622C583.384 33.7942 567.651 22.0069 548.163 15.6863L547.237 18.54ZM592.832 52.6725L590.375 54.3945C601.508 70.2753 607.153 89.7685 607.153 113.041H610.153H613.153C613.153 88.7658 607.25 68.0133 595.288 50.9503L592.832 52.6725ZM610.153 113.041H607.153C607.153 133.325 602.834 150.697 594.317 165.273L596.907 166.787L599.498 168.3C608.642 152.65 613.153 134.192 613.153 113.041H610.153ZM596.907 166.787L594.325 165.261C585.757 179.76 573.977 191.55 558.931 200.644L560.483 203.212L562.034 205.779C577.894 196.194 590.397 183.701 599.49 168.313L596.907 166.787ZM560.483 203.212L558.933 200.643C549.462 206.358 536.302 211.192 519.316 215.06L519.982 217.985L520.648 220.911C537.964 216.967 551.805 211.952 562.033 205.78L560.483 203.212ZM519.982 217.985L519.033 220.832C532.702 225.388 542.368 229.856 548.271 234.164L550.039 231.74L551.807 229.317C545.144 224.455 534.772 219.753 520.931 215.139L519.982 217.985ZM550.039 231.74L548.286 234.175C552.159 236.963 558.046 243.198 566.032 253.223L568.379 251.354L570.725 249.484C562.749 239.472 556.41 232.631 551.792 229.306L550.039 231.74ZM568.379 251.354L566.052 253.247C574.183 263.242 579.437 270.754 581.998 275.875L584.681 274.533L587.364 273.192C584.491 267.444 578.877 259.504 570.706 249.46L568.379 251.354ZM584.681 274.533L582.014 275.907L637.798 384.163L640.465 382.789L643.131 381.415L587.348 273.159L584.681 274.533ZM640.465 382.789V379.789H510.048V382.789V385.789H640.465V382.789ZM510.048 382.789L512.688 381.363L451.045 267.249L448.406 268.675L445.766 270.1L507.409 384.215L510.048 382.789ZM448.406 268.675L451.058 267.272C443.232 252.471 436 242.316 429.275 237.459L427.519 239.891L425.762 242.323C431.264 246.297 437.957 255.331 445.754 270.077L448.406 268.675ZM427.519 239.891L429.229 237.427C420.385 231.29 410.359 228.231 399.245 228.231V231.231V234.231C409.188 234.231 418.011 236.945 425.809 242.356L427.519 239.891ZM399.245 231.231V228.231H389.056V231.231V234.231H399.245V231.231ZM389.056 231.231H386.056V382.789H389.056H392.056V231.231H389.056ZM389.056 382.789V379.789H273.159V382.789V385.789H389.056V382.789ZM389.056 160.674V163.674H437.708V160.674V157.674H389.056V160.674ZM437.708 160.674V163.674C443.359 163.674 453.87 161.891 468.932 158.506L468.274 155.579L467.616 152.652C452.452 156.06 442.585 157.674 437.708 157.674V160.674ZM468.274 155.579L468.862 158.521C477.232 156.847 484.069 152.533 489.261 145.672L486.869 143.862L484.476 142.052C480.159 147.757 474.599 151.255 467.686 152.637L468.274 155.579ZM486.869 143.862L489.23 145.713C494.578 138.89 497.255 131.018 497.255 122.211H494.255H491.255C491.255 129.706 489.009 136.268 484.507 142.011L486.869 143.862ZM494.255 122.211H497.255C497.255 109.47 493.184 99.2946 484.729 92.1544L482.793 94.4465L480.858 96.7386C487.685 102.504 491.255 110.838 491.255 122.211H494.255ZM482.793 94.4465L484.729 92.1544C480.407 88.5047 474.398 85.933 466.958 84.26C459.497 82.5824 450.409 81.7671 439.745 81.7671V84.7671V87.7671C450.139 87.7671 458.754 88.5651 465.642 90.1139C472.551 91.6673 477.538 93.9353 480.858 96.7386L482.793 94.4465ZM439.745 84.7671V81.7671H389.056V84.7671V87.7671H439.745V84.7671ZM389.056 84.7671H386.056V160.674H389.056H392.056V84.7671H389.056ZM772.821 321.147L775.696 320.291L775.058 318.147H772.821V321.147ZM641.386 321.147V318.147H639.139L638.507 320.302L641.386 321.147ZM623.301 382.789V385.789H625.547L626.179 383.634L623.301 382.789ZM505.365 382.789L502.557 381.734L501.033 385.789H505.365V382.789ZM645.716 9.37012V6.37012H643.638L642.908 8.31464L645.716 9.37012ZM771.547 9.37012L774.356 8.31464L773.625 6.37012H771.547V9.37012ZM911.898 382.789V385.789H916.23L914.706 381.734L911.898 382.789ZM791.161 382.789L788.285 383.645L788.923 385.789H791.161V382.789ZM748.623 240.401V243.401H752.683L751.49 239.519L748.623 240.401ZM707.358 106.164L710.226 105.282L707.349 95.9247L704.489 105.287L707.358 106.164ZM666.348 240.401L663.479 239.524L662.295 243.401H666.348V240.401ZM772.821 321.147V318.147H641.386V321.147V324.147H772.821V321.147ZM641.386 321.147L638.507 320.302L620.422 381.944L623.301 382.789L626.179 383.634L644.264 321.991L641.386 321.147ZM623.301 382.789V379.789H505.365V382.789V385.789H623.301V382.789ZM505.365 382.789L508.174 383.845L648.524 10.4256L645.716 9.37012L642.908 8.31464L502.557 381.734L505.365 382.789ZM645.716 9.37012V12.3701H771.547V9.37012V6.37012H645.716V9.37012ZM771.547 9.37012L768.739 10.4256L909.09 383.845L911.898 382.789L914.706 381.734L774.356 8.31464L771.547 9.37012ZM911.898 382.789V379.789H791.161V382.789V385.789H911.898V382.789ZM791.161 382.789L794.036 381.934L775.696 320.291L772.821 321.147L769.945 322.002L788.285 383.645L791.161 382.789ZM748.623 240.401L751.49 239.519L710.226 105.282L707.358 106.164L704.49 107.045L745.755 241.282L748.623 240.401ZM707.358 106.164L704.489 105.287L663.479 239.524L666.348 240.401L669.217 241.277L710.227 107.04L707.358 106.164ZM666.348 240.401V243.401H748.623V240.401V237.401H666.348V240.401ZM815.261 9.37012V6.37012H812.261V9.37012H815.261ZM923.008 9.37012L925.488 7.6821L924.595 6.37012H923.008V9.37012ZM1063.61 215.948L1061.13 217.636L1066.61 225.687V215.948H1063.61ZM1063.61 9.37012V6.37012H1060.61V9.37012H1063.61ZM1172.38 9.37012H1175.38V6.37012H1172.38V9.37012ZM1172.38 382.789V385.789H1175.38V382.789H1172.38ZM1063.61 382.789L1061.13 384.479L1062.03 385.789H1063.61V382.789ZM923.772 177.74L926.25 176.049L920.772 168.016V177.74H923.772ZM923.772 382.789V385.789H926.772V382.789H923.772ZM815.261 382.789H812.261V385.789H815.261V382.789ZM815.261 9.37012V12.3701H923.008V9.37012V6.37012H815.261V9.37012ZM923.008 9.37012L920.528 11.0581L1061.13 217.636L1063.61 215.948L1066.09 214.26L925.488 7.6821L923.008 9.37012ZM1063.61 215.948H1066.61V9.37012H1063.61H1060.61V215.948H1063.61ZM1063.61 9.37012V12.3701H1172.38V9.37012V6.37012H1063.61V9.37012ZM1172.38 9.37012H1169.38V382.789H1172.38H1175.38V9.37012H1172.38ZM1172.38 382.789V379.789H1063.61V382.789V385.789H1172.38V382.789ZM1063.61 382.789L1066.09 381.099L926.25 176.049L923.772 177.74L921.293 179.43L1061.13 384.479L1063.61 382.789ZM923.772 177.74H920.772V382.789H923.772H926.772V177.74H923.772ZM923.772 382.789V379.789H815.261V382.789V385.789H923.772V382.789ZM815.261 382.789H818.261V9.37012H815.261H812.261V382.789H815.261ZM1094.34 259.25L1094.15 256.256L1091.09 256.448L1091.35 259.506L1094.34 259.25ZM1204.12 252.373L1207.09 251.976L1206.72 249.204L1203.93 249.378L1204.12 252.373ZM1218.64 293.128L1216.28 294.976L1216.28 294.982L1218.64 293.128ZM1307.54 304.335L1309.5 306.604L1309.5 306.601L1307.54 304.335ZM1249.21 229.703L1248.55 232.63L1248.55 232.631L1248.56 232.633L1249.21 229.703ZM1140.95 184.362L1142.92 182.104L1142.92 182.096L1140.95 184.362ZM1124.9 58.0215L1122.39 56.3805L1122.39 56.3866L1124.9 58.0215ZM1175.08 17.7758L1176.28 20.5267L1176.29 20.5224L1175.08 17.7758ZM1376.06 29.7477L1374.31 32.1889L1374.32 32.1956L1374.33 32.2022L1376.06 29.7477ZM1420.89 114.315L1421.06 117.309L1424.25 117.123L1423.86 113.949L1420.89 114.315ZM1312.12 120.683L1309.16 121.19L1309.62 123.834L1312.3 123.677L1312.12 120.683ZM1293.78 84.003L1291.86 86.3076L1291.87 86.3163L1291.88 86.3248L1293.78 84.003ZM1225.26 81.201L1227.17 83.5152L1227.19 83.5011L1227.21 83.4868L1225.26 81.201ZM1223.48 117.881L1225.49 115.658L1225.46 115.625L1225.42 115.593L1223.48 117.881ZM1262.2 131.636L1262.83 128.703L1262.82 128.701L1262.81 128.699L1262.2 131.636ZM1370.45 164.749L1369.08 167.415L1369.09 167.422L1369.1 167.428L1370.45 164.749ZM1418.08 206.014L1415.51 207.553L1415.52 207.563L1415.52 207.573L1418.08 206.014ZM1357.72 373.619L1358.91 376.369L1358.92 376.366L1358.93 376.362L1357.72 373.619ZM1094.34 259.25L1094.52 262.244L1204.31 255.367L1204.12 252.373L1203.93 249.378L1094.15 256.256L1094.34 259.25ZM1204.12 252.373L1201.15 252.769C1203.56 270.876 1208.52 285.052 1216.28 294.976L1218.64 293.128L1221 291.28C1214.16 282.525 1209.43 269.53 1207.09 251.976L1204.12 252.373ZM1218.64 293.128L1216.28 294.982C1228.83 310.932 1246.74 318.798 1269.58 318.798V315.798V312.798C1248.27 312.798 1232.23 305.55 1221 291.273L1218.64 293.128ZM1269.58 315.798V318.798C1286.48 318.798 1299.94 314.879 1309.5 306.604L1307.54 304.335L1305.57 302.067C1297.48 309.075 1285.63 312.798 1269.58 312.798V315.798ZM1307.54 304.335L1309.5 306.601C1319.04 298.327 1324.04 288.544 1324.04 277.335H1321.04H1318.04C1318.04 286.504 1314.04 294.721 1305.57 302.07L1307.54 304.335ZM1321.04 277.335H1324.04C1324.04 266.651 1319.31 257.222 1310.31 249.124L1308.3 251.354L1306.29 253.584C1314.28 260.768 1318.04 268.661 1318.04 277.335H1321.04ZM1308.3 251.354L1310.31 249.124C1305.63 244.915 1298.15 241.042 1288.19 237.393C1278.17 233.721 1265.38 230.185 1249.85 226.773L1249.21 229.703L1248.56 232.633C1263.94 236.013 1276.45 239.481 1286.13 243.027C1295.87 246.595 1302.48 250.151 1306.29 253.584L1308.3 251.354ZM1249.21 229.703L1249.86 226.776C1199.41 215.432 1163.92 200.454 1142.92 182.104L1140.95 184.362L1138.98 186.621C1161.11 205.969 1197.79 221.218 1248.55 232.63L1249.21 229.703ZM1140.95 184.362L1142.92 182.096C1121.85 163.826 1111.35 140.63 1111.35 112.277H1108.35H1105.35C1105.35 142.339 1116.58 167.2 1138.98 186.629L1140.95 184.362ZM1108.35 112.277H1111.35C1111.35 93.7013 1116.68 76.1796 1127.42 59.6565L1124.9 58.0215L1122.39 56.3866C1111.05 73.8262 1105.35 92.4746 1105.35 112.277H1108.35ZM1124.9 58.0215L1127.41 59.6626C1138.25 43.0862 1154.47 30.0162 1176.28 20.5267L1175.08 17.7758L1173.89 15.025C1151.2 24.8942 1133.97 38.6546 1122.39 56.3805L1124.9 58.0215ZM1175.08 17.7758L1176.29 20.5224C1198.17 10.9099 1228.35 6.00211 1267.04 6.00211V3.00211V0.00210571C1227.95 0.00210571 1196.83 4.94351 1173.88 15.0293L1175.08 17.7758ZM1267.04 3.00211V6.00211C1314.45 6.00211 1350.07 14.8732 1374.31 32.1889L1376.06 29.7477L1377.8 27.3065C1352.12 8.96143 1315.06 0.00210571 1267.04 0.00210571V3.00211ZM1376.06 29.7477L1374.33 32.2022C1398.59 49.2502 1413.23 76.5622 1417.91 114.68L1420.89 114.315L1423.86 113.949C1419.04 74.6322 1403.79 45.5663 1377.78 27.2931L1376.06 29.7477ZM1420.89 114.315L1420.71 111.32L1311.95 117.688L1312.12 120.683L1312.3 123.677L1421.06 117.309L1420.89 114.315ZM1312.12 120.683L1315.08 120.175C1312.12 102.943 1305.77 89.9383 1295.68 81.6811L1293.78 84.003L1291.88 86.3248C1300.47 93.3508 1306.35 104.799 1309.16 121.19L1312.12 120.683ZM1293.78 84.003L1295.7 81.6983C1285.82 73.467 1272.32 69.5406 1255.57 69.5406V72.5406V75.5406C1271.43 75.5406 1283.4 79.2558 1291.86 86.3076L1293.78 84.003ZM1255.57 72.5406V69.5406C1241.79 69.5406 1230.87 72.4971 1223.32 78.9152L1225.26 81.201L1227.21 83.4868C1233.24 78.3576 1242.52 75.5406 1255.57 75.5406V72.5406ZM1225.26 81.201L1223.35 78.8869C1215.93 85.0085 1212.07 92.7079 1212.07 101.833H1215.07H1218.07C1218.07 94.6567 1221.01 88.6013 1227.17 83.5152L1225.26 81.201ZM1215.07 101.833H1212.07C1212.07 108.862 1215.44 114.99 1221.54 120.168L1223.48 117.881L1225.42 115.593C1220.31 111.262 1218.07 106.692 1218.07 101.833H1215.07ZM1223.48 117.881L1221.46 120.104C1224.63 122.972 1229.67 125.51 1236.23 127.84C1242.86 130.195 1251.32 132.435 1261.58 134.572L1262.2 131.636L1262.81 128.699C1252.69 126.591 1244.52 124.416 1238.24 122.186C1231.89 119.931 1227.76 117.713 1225.49 115.658L1223.48 117.881ZM1262.2 131.636L1261.56 134.568C1311.96 145.428 1347.72 156.401 1369.08 167.415L1370.45 164.749L1371.83 162.083C1349.72 150.682 1313.3 139.579 1262.83 128.703L1262.2 131.636ZM1370.45 164.749L1369.1 167.428C1390.64 178.28 1406.02 191.689 1415.51 207.553L1418.08 206.014L1420.66 204.474C1410.45 187.395 1394.08 173.293 1371.8 162.07L1370.45 164.749ZM1418.08 206.014L1415.52 207.573C1425.24 223.548 1430.11 241.427 1430.11 261.288H1433.11H1436.11C1436.11 240.393 1430.97 221.423 1420.65 204.455L1418.08 206.014ZM1433.11 261.288H1430.11C1430.11 284.642 1423.66 306.147 1410.74 325.87L1413.25 327.515L1415.75 329.159C1429.32 308.468 1436.11 285.821 1436.11 261.288H1433.11ZM1413.25 327.515L1410.74 325.87C1397.83 345.558 1379.79 360.563 1356.5 370.876L1357.72 373.619L1358.93 376.362C1383.19 365.618 1402.17 349.887 1415.75 329.159L1413.25 327.515ZM1357.72 373.619L1356.52 370.869C1333.24 381.011 1303.71 386.157 1267.8 386.157V389.157V392.157C1304.23 392.157 1334.64 386.944 1358.91 376.369L1357.72 373.619ZM1267.8 389.157V386.157C1204.48 386.157 1161.55 373.93 1137.98 350.356L1135.86 352.477L1133.73 354.599C1159.07 379.931 1204.1 392.157 1267.8 392.157V389.157ZM1135.86 352.477L1137.98 350.356C1114.07 326.451 1100.5 296.059 1097.33 258.994L1094.34 259.25L1091.35 259.506C1094.63 297.838 1108.73 329.597 1133.73 354.599L1135.86 352.477ZM29.7447 380.37V377.37H26.7447V380.37H29.7447ZM315.031 380.37H318.031V377.37H315.031V380.37ZM315.031 460.607V463.607H318.031V460.607H315.031ZM145.642 460.607V457.607H142.642V460.607H145.642ZM145.642 525.815H142.642V528.815H145.642V525.815ZM290.323 525.815H293.323V522.815H290.323V525.815ZM290.323 601.212V604.212H293.323V601.212H290.323ZM145.642 601.212V598.212H142.642V601.212H145.642ZM145.642 753.789V756.789H148.642V753.789H145.642ZM29.7447 753.789H26.7447V756.789H29.7447V753.789ZM29.7447 380.37V383.37H315.031V380.37V377.37H29.7447V380.37ZM315.031 380.37H312.031V460.607H315.031H318.031V380.37H315.031ZM315.031 460.607V457.607H145.642V460.607V463.607H315.031V460.607ZM145.642 460.607H142.642V525.815H145.642H148.642V460.607H145.642ZM145.642 525.815V528.815H290.323V525.815V522.815H145.642V525.815ZM290.323 525.815H287.323V601.212H290.323H293.323V525.815H290.323ZM290.323 601.212V598.212H145.642V601.212V604.212H290.323V601.212ZM145.642 601.212H142.642V753.789H145.642H148.642V601.212H145.642ZM145.642 753.789V750.789H29.7447V753.789V756.789H145.642V753.789ZM29.7447 753.789H32.7447V380.37H29.7447H26.7447V753.789H29.7447ZM564.558 424.182L562.442 426.309L562.448 426.314L564.558 424.182ZM592.832 671.769L590.178 670.37L590.175 670.376L592.832 671.769ZM529.152 736.978L530.614 739.597L530.62 739.594L529.152 736.978ZM320.791 740.034L319.477 742.731L319.483 742.734L320.791 740.034ZM364.348 649.099L362.057 651.036L362.063 651.043L362.069 651.05L364.348 649.099ZM478.208 485.824L475.939 487.786L475.95 487.799L475.961 487.811L478.208 485.824ZM364.603 486.079L366.883 488.029L364.603 486.079ZM228.073 567.334H231.073C231.073 506.942 247.88 460.326 281.139 427.067L279.017 424.946L276.896 422.825C242.229 457.491 225.073 505.801 225.073 567.334H228.073ZM279.017 424.946L281.139 427.067C314.4 393.806 360.849 377.002 420.896 377.002V374.002V371.002C359.697 371.002 311.56 388.161 276.896 422.825L279.017 424.946ZM420.896 374.002V377.002C482.51 377.002 529.54 393.572 562.442 426.309L564.558 424.182L566.674 422.055C532.33 387.885 483.585 371.002 420.896 371.002V374.002ZM564.558 424.182L562.448 426.314C595.357 458.891 611.993 504.737 611.993 564.278H614.993H617.993C617.993 503.591 601.005 456.039 566.669 422.05L564.558 424.182ZM614.993 564.278H611.993C611.993 607.607 604.655 642.914 590.178 670.37L592.832 671.769L595.486 673.169C610.556 644.586 617.993 608.232 617.993 564.278H614.993ZM592.832 671.769L590.175 670.376C575.845 697.703 555.036 719.018 527.684 734.361L529.152 736.978L530.62 739.594C558.967 723.692 580.611 701.534 595.489 673.163L592.832 671.769ZM529.152 736.978L527.69 734.358C500.574 749.496 466.556 757.157 425.481 757.157V760.157V763.157C467.275 763.157 502.371 755.365 530.614 739.597L529.152 736.978ZM425.481 760.157V757.157C383.663 757.157 349.25 750.493 322.1 737.335L320.791 740.034L319.483 742.734C347.692 756.406 383.072 763.157 425.481 763.157V760.157ZM320.791 740.034L322.106 737.338C295.178 724.206 273.267 703.414 256.383 674.829L253.8 676.354L251.217 677.88C268.635 707.37 291.385 729.032 319.477 742.731L320.791 740.034ZM253.8 676.354L256.383 674.829C239.574 646.37 231.073 610.594 231.073 567.334H228.073H225.073C225.073 611.359 233.724 648.263 251.217 677.88L253.8 676.354ZM343.461 567.844H340.461C340.461 605.772 347.439 633.744 362.057 651.036L364.348 649.099L366.64 647.163C353.408 631.511 346.461 605.313 346.461 567.844H343.461ZM364.348 649.099L362.069 651.05C376.802 668.267 396.781 676.807 421.66 676.807V673.807V670.807C398.313 670.807 380.084 662.875 366.628 647.149L364.348 649.099ZM421.66 673.807V676.807C447.166 676.807 467.264 668.472 481.522 651.541L479.227 649.609L476.932 647.676C464.02 663.01 445.74 670.807 421.66 670.807V673.807ZM479.227 649.609L481.522 651.541C495.836 634.543 502.605 604.64 502.605 562.749H499.605H496.605C496.605 604.407 489.788 632.41 476.932 647.676L479.227 649.609ZM499.605 562.749H502.605C502.605 527.3 495.431 500.773 480.456 483.837L478.208 485.824L475.961 487.811C489.514 503.14 496.605 527.896 496.605 562.749H499.605ZM478.208 485.824L480.478 483.862C465.737 466.813 445.673 458.371 420.642 458.371V461.371V464.371C444.177 464.371 462.49 472.231 475.939 487.786L478.208 485.824ZM420.642 461.371V458.371C396.573 458.371 377.034 466.937 362.324 484.128L364.603 486.079L366.883 488.029C380.361 472.277 398.181 464.371 420.642 464.371V461.371ZM364.603 486.079L362.324 484.128C347.523 501.425 340.461 529.578 340.461 567.844H343.461H346.461C346.461 530.033 353.494 503.676 366.883 488.029L364.603 486.079ZM544.083 753.789H541.083V756.789H544.083V753.789ZM544.083 380.37V377.37H541.083V380.37H544.083ZM863.756 423.672L861.291 425.383L861.295 425.389L861.299 425.395L863.756 423.672ZM867.831 537.787L870.414 539.313L870.418 539.307L870.422 539.3L867.831 537.787ZM831.406 574.212L832.956 576.78L832.958 576.779L831.406 574.212ZM790.906 588.985L790.24 586.06L779.786 588.441L789.957 591.832L790.906 588.985ZM820.963 602.74L819.195 605.164L819.202 605.169L819.21 605.175L820.963 602.74ZM839.303 622.354L836.956 624.223L836.966 624.235L836.976 624.247L839.303 622.354ZM855.605 645.533L852.922 646.875L852.93 646.891L852.938 646.907L855.605 645.533ZM911.388 753.789V756.789H916.309L914.055 752.415L911.388 753.789ZM780.972 753.789L778.332 755.215L779.183 756.789H780.972V753.789ZM719.33 639.675L716.678 641.077L716.684 641.089L716.69 641.1L719.33 639.675ZM698.443 610.891L700.199 608.459L700.176 608.443L700.153 608.427L698.443 610.891ZM659.98 602.231V599.231H656.98V602.231H659.98ZM659.98 753.789V756.789H662.98V753.789H659.98ZM659.98 531.674H656.98V534.674H659.98V531.674ZM739.198 526.579L738.61 523.637L738.575 523.644L738.54 523.652L739.198 526.579ZM757.792 514.862L755.431 513.011L755.416 513.031L755.4 513.052L757.792 514.862ZM659.98 455.767V452.767H656.98V455.767H659.98ZM544.083 753.789H547.083V380.37H544.083H541.083V753.789H544.083ZM544.083 380.37V383.37H736.396V380.37V377.37H544.083V380.37ZM736.396 380.37V383.37C771.951 383.37 798.834 386.426 817.235 392.394L818.161 389.54L819.087 386.686C799.789 380.428 772.162 377.37 736.396 377.37V380.37ZM818.161 389.54L817.235 392.394C835.446 398.3 850.109 409.267 861.291 425.383L863.756 423.672L866.221 421.962C854.308 404.794 838.575 393.007 819.087 386.686L818.161 389.54ZM863.756 423.672L861.299 425.395C872.432 441.275 878.077 460.768 878.077 484.041H881.077H884.077C884.077 459.766 878.174 439.013 866.212 421.95L863.756 423.672ZM881.077 484.041H878.077C878.077 504.325 873.757 521.697 865.241 536.273L867.831 537.787L870.422 539.3C879.566 523.65 884.077 505.192 884.077 484.041H881.077ZM867.831 537.787L865.249 536.261C856.681 550.76 844.901 562.55 829.855 571.644L831.406 574.212L832.958 576.779C848.818 567.194 861.321 554.701 870.414 539.313L867.831 537.787ZM831.406 574.212L829.856 571.643C820.385 577.358 807.226 582.192 790.24 586.06L790.906 588.985L791.572 591.911C808.888 587.967 822.729 582.952 832.956 576.78L831.406 574.212ZM790.906 588.985L789.957 591.832C803.626 596.388 813.291 600.856 819.195 605.164L820.963 602.74L822.731 600.317C816.068 595.455 805.696 590.753 791.855 586.139L790.906 588.985ZM820.963 602.74L819.21 605.175C823.083 607.963 828.97 614.198 836.956 624.223L839.303 622.354L841.649 620.484C833.673 610.472 827.334 603.631 822.716 600.306L820.963 602.74ZM839.303 622.354L836.976 624.247C845.107 634.242 850.361 641.754 852.922 646.875L855.605 645.533L858.288 644.192C855.414 638.444 849.801 630.504 841.63 620.46L839.303 622.354ZM855.605 645.533L852.938 646.907L908.722 755.163L911.388 753.789L914.055 752.415L858.272 644.159L855.605 645.533ZM911.388 753.789V750.789H780.972V753.789V756.789H911.388V753.789ZM780.972 753.789L783.611 752.363L721.969 638.249L719.33 639.675L716.69 641.1L778.332 755.215L780.972 753.789ZM719.33 639.675L721.982 638.272C714.156 623.471 706.924 613.316 700.199 608.459L698.443 610.891L696.686 613.323C702.188 617.297 708.881 626.331 716.678 641.077L719.33 639.675ZM698.443 610.891L700.153 608.427C691.309 602.29 681.283 599.231 670.169 599.231V602.231V605.231C680.112 605.231 688.935 607.945 696.733 613.356L698.443 610.891ZM670.169 602.231V599.231H659.98V602.231V605.231H670.169V602.231ZM659.98 602.231H656.98V753.789H659.98H662.98V602.231H659.98ZM659.98 753.789V750.789H544.083V753.789V756.789H659.98V753.789ZM659.98 531.674V534.674H708.632V531.674V528.674H659.98V531.674ZM708.632 531.674V534.674C714.283 534.674 724.794 532.891 739.856 529.506L739.198 526.579L738.54 523.652C723.376 527.06 713.509 528.674 708.632 528.674V531.674ZM739.198 526.579L739.786 529.521C748.156 527.847 754.993 523.533 760.185 516.672L757.792 514.862L755.4 513.052C751.083 518.757 745.523 522.255 738.61 523.637L739.198 526.579ZM757.792 514.862L760.154 516.713C765.501 509.89 768.179 502.018 768.179 493.211H765.179H762.179C762.179 500.706 759.933 507.268 755.431 513.011L757.792 514.862ZM765.179 493.211H768.179C768.179 480.47 764.108 470.295 755.652 463.154L753.717 465.446L751.781 467.739C758.609 473.504 762.179 481.838 762.179 493.211H765.179ZM753.717 465.446L755.652 463.154C751.331 459.505 745.322 456.933 737.882 455.26C730.421 453.582 721.333 452.767 710.669 452.767V455.767V458.767C721.063 458.767 729.678 459.565 736.566 461.114C743.475 462.667 748.462 464.935 751.781 467.739L753.717 465.446ZM710.669 455.767V452.767H659.98V455.767V458.767H710.669V455.767ZM659.98 455.767H656.98V531.674H659.98H662.98V455.767H659.98ZM812.714 380.37V377.37H809.714V380.37H812.714ZM964.527 380.37L967.432 379.621L966.852 377.37H964.527V380.37ZM1023.11 607.58L1020.21 608.329L1026.02 608.326L1023.11 607.58ZM1081.44 380.37V377.37H1079.12L1078.54 379.624L1081.44 380.37ZM1232.75 380.37H1235.75V377.37H1232.75V380.37ZM1232.75 753.789V756.789H1235.75V753.789H1232.75ZM1138.5 753.789H1135.5V756.789H1138.5V753.789ZM1138.5 469.013H1141.5L1135.59 468.267L1138.5 469.013ZM1065.4 753.789V756.789H1067.72L1068.3 754.535L1065.4 753.789ZM980.065 753.789L977.159 754.533L977.736 756.789H980.065V753.789ZM907.215 469.013L910.122 468.269L904.215 469.013H907.215ZM907.215 753.789V756.789H910.215V753.789H907.215ZM812.714 753.789H809.714V756.789H812.714V753.789ZM812.714 380.37V383.37H964.527V380.37V377.37H812.714V380.37ZM964.527 380.37L961.622 381.119L1020.21 608.329L1023.11 607.58L1026.02 606.831L967.432 379.621L964.527 380.37ZM1023.11 607.58L1026.02 608.326L1084.35 381.116L1081.44 380.37L1078.54 379.624L1020.21 606.834L1023.11 607.58ZM1081.44 380.37V383.37H1232.75V380.37V377.37H1081.44V380.37ZM1232.75 380.37H1229.75V753.789H1232.75H1235.75V380.37H1232.75ZM1232.75 753.789V750.789H1138.5V753.789V756.789H1232.75V753.789ZM1138.5 753.789H1141.5V469.013H1138.5H1135.5V753.789H1138.5ZM1138.5 469.013L1135.59 468.267L1062.49 753.043L1065.4 753.789L1068.3 754.535L1141.41 469.758L1138.5 469.013ZM1065.4 753.789V750.789H980.065V753.789V756.789H1065.4V753.789ZM980.065 753.789L982.971 753.046L910.122 468.269L907.215 469.013L904.309 469.756L977.159 754.533L980.065 753.789ZM907.215 469.013H904.215V753.789H907.215H910.215V469.013H907.215ZM907.215 753.789V750.789H812.714V753.789V756.789H907.215V753.789ZM812.714 753.789H815.714V380.37H812.714H809.714V753.789H812.714ZM1176.61 380.37V377.37H1173.61V380.37H1176.61ZM1292.25 380.37H1295.25V377.37H1292.25V380.37ZM1292.25 753.789V756.789H1295.25V753.789H1292.25ZM1176.61 753.789H1173.61V756.789H1176.61V753.789ZM1176.61 380.37V383.37H1292.25V380.37V377.37H1176.61V380.37ZM1292.25 380.37H1289.25V753.789H1292.25H1295.25V380.37H1292.25ZM1292.25 753.789V750.789H1176.61V753.789V756.789H1292.25V753.789ZM1176.61 753.789H1179.61V380.37H1176.61H1173.61V753.789H1176.61ZM1242.23 753.789H1239.23V756.789H1242.23V753.789ZM1242.23 380.37V377.37H1239.23V380.37H1242.23ZM1561.9 423.672L1559.44 425.383L1559.44 425.389L1559.45 425.395L1561.9 423.672ZM1565.98 537.787L1568.56 539.313L1568.57 539.307L1568.57 539.3L1565.98 537.787ZM1529.55 574.212L1531.1 576.78L1531.11 576.779L1529.55 574.212ZM1489.05 588.985L1488.39 586.06L1477.93 588.441L1488.11 591.832L1489.05 588.985ZM1519.11 602.74L1517.34 605.164L1517.35 605.169L1517.36 605.175L1519.11 602.74ZM1537.45 622.354L1535.1 624.223L1535.11 624.235L1535.12 624.247L1537.45 622.354ZM1553.75 645.533L1551.07 646.875L1551.08 646.891L1551.09 646.907L1553.75 645.533ZM1609.54 753.789V756.789H1614.46L1612.2 752.415L1609.54 753.789ZM1479.12 753.789L1476.48 755.215L1477.33 756.789H1479.12V753.789ZM1417.48 639.675L1414.83 641.077L1414.83 641.089L1414.84 641.1L1417.48 639.675ZM1396.59 610.891L1398.35 608.459L1398.32 608.443L1398.3 608.427L1396.59 610.891ZM1358.13 602.231V599.231H1355.13V602.231H1358.13ZM1358.13 753.789V756.789H1361.13V753.789H1358.13ZM1358.13 531.674H1355.13V534.674H1358.13V531.674ZM1437.35 526.579L1436.76 523.637L1436.72 523.644L1436.69 523.652L1437.35 526.579ZM1455.94 514.862L1453.58 513.011L1453.56 513.031L1453.55 513.052L1455.94 514.862ZM1358.13 455.767V452.767H1355.13V455.767H1358.13ZM1242.23 753.789H1245.23V380.37H1242.23H1239.23V753.789H1242.23ZM1242.23 380.37V383.37H1434.54V380.37V377.37H1242.23V380.37ZM1434.54 380.37V383.37C1470.1 383.37 1496.98 386.426 1515.38 392.394L1516.31 389.54L1517.23 386.686C1497.94 380.428 1470.31 377.37 1434.54 377.37V380.37ZM1516.31 389.54L1515.38 392.394C1533.59 398.3 1548.26 409.267 1559.44 425.383L1561.9 423.672L1564.37 421.962C1552.46 404.794 1536.72 393.007 1517.23 386.686L1516.31 389.54ZM1561.9 423.672L1559.45 425.395C1570.58 441.275 1576.22 460.768 1576.22 484.041H1579.22H1582.22C1582.22 459.766 1576.32 439.013 1564.36 421.95L1561.9 423.672ZM1579.22 484.041H1576.22C1576.22 504.325 1571.91 521.697 1563.39 536.273L1565.98 537.787L1568.57 539.3C1577.71 523.65 1582.22 505.192 1582.22 484.041H1579.22ZM1565.98 537.787L1563.4 536.261C1554.83 550.76 1543.05 562.55 1528 571.644L1529.55 574.212L1531.11 576.779C1546.97 567.194 1559.47 554.701 1568.56 539.313L1565.98 537.787ZM1529.55 574.212L1528 571.643C1518.53 577.358 1505.37 582.192 1488.39 586.06L1489.05 588.985L1489.72 591.911C1507.04 587.967 1520.88 582.952 1531.1 576.78L1529.55 574.212ZM1489.05 588.985L1488.11 591.832C1501.77 596.388 1511.44 600.856 1517.34 605.164L1519.11 602.74L1520.88 600.317C1514.22 595.455 1503.84 590.753 1490 586.139L1489.05 588.985ZM1519.11 602.74L1517.36 605.175C1521.23 607.963 1527.12 614.198 1535.1 624.223L1537.45 622.354L1539.8 620.484C1531.82 610.472 1525.48 603.631 1520.86 600.306L1519.11 602.74ZM1537.45 622.354L1535.12 624.247C1543.25 634.242 1548.51 641.754 1551.07 646.875L1553.75 645.533L1556.44 644.192C1553.56 638.444 1547.95 630.504 1539.78 620.46L1537.45 622.354ZM1553.75 645.533L1551.09 646.907L1606.87 755.163L1609.54 753.789L1612.2 752.415L1556.42 644.159L1553.75 645.533ZM1609.54 753.789V750.789H1479.12V753.789V756.789H1609.54V753.789ZM1479.12 753.789L1481.76 752.363L1420.12 638.249L1417.48 639.675L1414.84 641.1L1476.48 755.215L1479.12 753.789ZM1417.48 639.675L1420.13 638.272C1412.3 623.471 1405.07 613.316 1398.35 608.459L1396.59 610.891L1394.83 613.323C1400.34 617.297 1407.03 626.331 1414.83 641.077L1417.48 639.675ZM1396.59 610.891L1398.3 608.427C1389.46 602.29 1379.43 599.231 1368.32 599.231V602.231V605.231C1378.26 605.231 1387.08 607.945 1394.88 613.356L1396.59 610.891ZM1368.32 602.231V599.231H1358.13V602.231V605.231H1368.32V602.231ZM1358.13 602.231H1355.13V753.789H1358.13H1361.13V602.231H1358.13ZM1358.13 753.789V750.789H1242.23V753.789V756.789H1358.13V753.789ZM1358.13 531.674V534.674H1406.78V531.674V528.674H1358.13V531.674ZM1406.78 531.674V534.674C1412.43 534.674 1422.94 532.891 1438 529.506L1437.35 526.579L1436.69 523.652C1421.52 527.06 1411.66 528.674 1406.78 528.674V531.674ZM1437.35 526.579L1437.93 529.521C1446.3 527.847 1453.14 523.533 1458.33 516.672L1455.94 514.862L1453.55 513.052C1449.23 518.757 1443.67 522.255 1436.76 523.637L1437.35 526.579ZM1455.94 514.862L1458.3 516.713C1463.65 509.89 1466.33 502.018 1466.33 493.211H1463.33H1460.33C1460.33 500.706 1458.08 507.268 1453.58 513.011L1455.94 514.862ZM1463.33 493.211H1466.33C1466.33 480.47 1462.26 470.295 1453.8 463.154L1451.86 465.446L1449.93 467.739C1456.76 473.504 1460.33 481.838 1460.33 493.211H1463.33ZM1451.86 465.446L1453.8 463.154C1449.48 459.505 1443.47 456.933 1436.03 455.26C1428.57 453.582 1419.48 452.767 1408.82 452.767V455.767V458.767C1419.21 458.767 1427.83 459.565 1434.71 461.114C1441.62 462.667 1446.61 464.935 1449.93 467.739L1451.86 465.446ZM1408.82 455.767V452.767H1358.13V455.767V458.767H1408.82V455.767ZM1358.13 455.767H1355.13V531.674H1358.13H1361.13V455.767H1358.13Z" fill="black" mask="url(#path-1-outside-1_689_3)"/>
</svg>
