<svg width="292" height="474" viewBox="0 0 292 474" fill="none" xmlns="http://www.w3.org/2000/svg">
<mask id="path-1-outside-1_689_472" maskUnits="userSpaceOnUse" x="-0.851562" y="-0.4375" width="292" height="474" fill="black">
<rect fill="white" x="-0.851562" y="-0.4375" width="292" height="474"/>
<path d="M0.951062 0.952988H112.36V30.2413H74.9809V119.562H38.33V30.2413H0.951062V0.952988ZM86.7622 119.562V0.952988H147.847C159.174 0.952988 167.831 1.92387 173.818 3.86564C179.805 5.8074 184.633 9.42124 188.3 14.7072C191.968 19.9391 193.802 26.3308 193.802 33.8821C193.802 40.4625 192.4 46.153 189.595 50.9535C186.79 55.7 182.934 59.5566 178.025 62.5231C174.897 64.411 170.609 65.9752 165.161 67.2157C169.53 68.6721 172.712 70.1284 174.708 71.5847C176.056 72.5556 177.998 74.6322 180.533 77.8145C183.122 80.9969 184.848 83.4511 185.711 85.1771L203.43 119.562H162.006L142.426 83.3162C139.945 78.6236 137.734 75.5761 135.792 74.1737C133.149 72.3398 130.155 71.4229 126.811 71.4229H123.575V119.562H86.7622ZM123.575 49.0117H139.028C140.7 49.0117 143.936 48.4723 148.737 47.3935C151.164 46.9081 153.133 45.6675 154.643 43.6718C156.207 41.6761 156.989 39.3838 156.989 36.7947C156.989 32.9652 155.776 30.0255 153.349 27.9759C150.921 25.9263 146.364 24.9014 139.675 24.9014H123.575V49.0117ZM245.47 99.983H203.723L197.978 119.562H160.518L205.098 0.952988H245.066L289.646 119.562H251.296L245.47 99.983ZM237.784 74.3355L224.677 31.6976L211.651 74.3355H237.784ZM9.52719 117.953H43.7508L88.4114 183.568V117.953H122.959V236.562H88.4114L43.9935 171.432V236.562H9.52719V117.953ZM98.1701 197.323L133.041 195.138C133.796 200.802 135.333 205.117 137.653 208.083C141.428 212.884 146.822 215.284 153.834 215.284C159.066 215.284 163.084 214.07 165.889 211.643C168.748 209.162 170.177 206.303 170.177 203.067C170.177 199.993 168.829 197.242 166.132 194.815C163.435 192.387 157.178 190.095 147.361 187.937C131.288 184.324 119.826 179.523 112.976 173.536C106.072 167.549 102.62 159.917 102.62 150.639C102.62 144.544 104.373 138.8 107.879 133.406C111.439 127.958 116.752 123.697 123.818 120.623C130.937 117.495 140.673 115.93 153.025 115.93C168.182 115.93 179.724 118.762 187.653 124.426C195.636 130.035 200.382 138.989 201.893 151.287L167.345 153.309C166.429 147.969 164.487 144.086 161.52 141.659C158.608 139.232 154.562 138.018 149.384 138.018C145.123 138.018 141.914 138.935 139.756 140.769C137.599 142.549 136.52 144.733 136.52 147.322C136.52 149.21 137.41 150.909 139.19 152.419C140.916 153.984 145.015 155.44 151.488 156.788C167.507 160.24 178.969 163.746 185.873 167.306C192.831 170.812 197.874 175.181 201.003 180.413C204.185 185.645 205.776 191.497 205.776 197.97C205.776 205.575 203.673 212.587 199.466 219.006C195.258 225.424 189.379 230.306 181.828 233.65C174.277 236.94 164.756 238.585 153.268 238.585C133.095 238.585 119.125 234.702 111.358 226.935C103.591 219.168 99.1949 209.297 98.1701 197.323ZM9.44629 235.953H100.062V261.439H46.2589V282.151H92.214V306.099H46.2589V354.562H9.44629V235.953ZM72.4417 295.339C72.4417 275.975 77.8355 260.899 88.6231 250.112C99.4107 239.324 114.432 233.93 133.688 233.93C153.429 233.93 168.64 239.243 179.32 249.869C189.999 260.441 195.339 275.274 195.339 294.368C195.339 308.23 192.993 319.611 188.3 328.51C183.662 337.356 176.919 344.26 168.074 349.223C159.282 354.131 148.305 356.585 135.145 356.585C121.768 356.585 110.684 354.455 101.892 350.194C93.1539 345.932 86.061 339.19 80.6133 329.967C75.1656 320.743 72.4417 309.201 72.4417 295.339ZM109.093 295.5C109.093 307.475 111.304 316.078 115.727 321.31C120.204 326.542 126.272 329.158 133.931 329.158C141.806 329.158 147.901 326.596 152.216 321.472C156.531 316.347 158.688 307.151 158.688 293.882C158.688 282.717 156.423 274.573 151.892 269.448C147.415 264.27 141.32 261.681 133.607 261.681C126.218 261.681 120.285 264.297 115.808 269.529C111.331 274.761 109.093 283.418 109.093 295.5ZM172.816 354.562V235.953H233.901C245.228 235.953 253.885 236.924 259.872 238.866C265.859 240.807 270.686 244.421 274.354 249.707C278.022 254.939 279.856 261.331 279.856 268.882C279.856 275.463 278.454 281.153 275.649 285.953C272.844 290.7 268.987 294.557 264.079 297.523C260.951 299.411 256.663 300.975 251.215 302.216C255.584 303.672 258.766 305.128 260.762 306.585C262.11 307.556 264.052 309.632 266.587 312.815C269.176 315.997 270.902 318.451 271.765 320.177L289.484 354.562H248.059L228.48 318.316C225.999 313.624 223.787 310.576 221.846 309.174C219.203 307.34 216.209 306.423 212.865 306.423H209.629V354.562H172.816ZM209.629 284.012H225.082C226.754 284.012 229.99 283.472 234.791 282.394C237.218 281.908 239.187 280.668 240.697 278.672C242.261 276.676 243.043 274.384 243.043 271.795C243.043 267.965 241.83 265.026 239.402 262.976C236.975 260.926 232.417 259.901 225.729 259.901H209.629V284.012ZM8.87994 353.953H57.1004L75.709 426.122L94.2367 353.953H142.295V472.562H112.36V382.109L89.1396 472.562H62.0358L38.8964 382.109V472.562H8.87994V353.953ZM124.465 353.953H161.197V472.562H124.465V353.953ZM145.308 472.562V353.953H206.392C217.719 353.953 226.376 354.924 232.364 356.866C238.351 358.807 243.178 362.421 246.846 367.707C250.514 372.939 252.348 379.331 252.348 386.882C252.348 393.463 250.945 399.153 248.14 403.953C245.336 408.7 241.479 412.557 236.571 415.523C233.442 417.411 229.154 418.975 223.707 420.216C228.075 421.672 231.258 423.128 233.254 424.585C234.602 425.556 236.544 427.632 239.079 430.815C241.668 433.997 243.394 436.451 244.257 438.177L261.975 472.562H220.551L200.972 436.316C198.491 431.624 196.279 428.576 194.337 427.174C191.694 425.34 188.701 424.423 185.357 424.423H182.12V472.562H145.308ZM182.12 402.012H197.574C199.246 402.012 202.482 401.472 207.282 400.394C209.71 399.908 211.678 398.668 213.189 396.672C214.753 394.676 215.535 392.384 215.535 389.795C215.535 385.965 214.321 383.026 211.894 380.976C209.467 378.926 204.909 377.901 198.221 377.901H182.12V402.012Z"/>
</mask>
<path d="M0.951062 0.952988V9.15527e-05H-0.00183201V0.952988H0.951062ZM112.36 0.952988H113.313V9.15527e-05H112.36V0.952988ZM112.36 30.2413V31.1942H113.313V30.2413H112.36ZM74.9809 30.2413V29.2884H74.028V30.2413H74.9809ZM74.9809 119.562V120.515H75.9338V119.562H74.9809ZM38.33 119.562H37.3772V120.515H38.33V119.562ZM38.33 30.2413H39.2829V29.2884H38.33V30.2413ZM0.951062 30.2413H-0.00183201V31.1942H0.951062V30.2413ZM0.951062 0.952988V1.90588H112.36V0.952988V9.15527e-05H0.951062V0.952988ZM112.36 0.952988H111.407V30.2413H112.36H113.313V0.952988H112.36ZM112.36 30.2413V29.2884H74.9809V30.2413V31.1942H112.36V30.2413ZM74.9809 30.2413H74.028V119.562H74.9809H75.9338V30.2413H74.9809ZM74.9809 119.562V118.61H38.33V119.562V120.515H74.9809V119.562ZM38.33 119.562H39.2829V30.2413H38.33H37.3772V119.562H38.33ZM38.33 30.2413V29.2884H0.951062V30.2413V31.1942H38.33V30.2413ZM0.951062 30.2413H1.90396V0.952988H0.951062H-0.00183201V30.2413H0.951062ZM86.7622 119.562H85.8093V120.515H86.7622V119.562ZM86.7622 0.952988V9.15527e-05H85.8093V0.952988H86.7622ZM188.3 14.7072L187.517 15.2504L187.52 15.2542L188.3 14.7072ZM189.595 50.9535L190.415 51.4382L190.418 51.4342L189.595 50.9535ZM178.025 62.5231L178.518 63.339L178.518 63.3387L178.025 62.5231ZM165.161 67.2157L164.949 66.2866L161.629 67.0428L164.86 68.1197L165.161 67.2157ZM174.708 71.5847L174.146 72.3545L174.151 72.358L174.708 71.5847ZM180.533 77.8145L179.788 78.4083L179.794 78.4159L180.533 77.8145ZM185.711 85.1771L184.859 85.6032L184.864 85.6135L185.711 85.1771ZM203.43 119.562V120.515H204.993L204.277 119.126L203.43 119.562ZM162.006 119.562L161.167 120.015L161.437 120.515H162.006V119.562ZM142.426 83.3162L141.584 83.7616L141.588 83.7691L142.426 83.3162ZM135.792 74.1737L136.35 73.4012L136.342 73.396L136.335 73.3908L135.792 74.1737ZM123.575 71.4229V70.47H122.622V71.4229H123.575ZM123.575 119.562V120.515H124.528V119.562H123.575ZM123.575 49.0117H122.622V49.9646H123.575V49.0117ZM148.737 47.3935L148.55 46.4592L148.539 46.4614L148.528 46.4638L148.737 47.3935ZM154.643 43.6718L153.893 43.084L153.888 43.0904L153.883 43.0968L154.643 43.6718ZM123.575 24.9014V23.9485H122.622V24.9014H123.575ZM86.7622 119.562H87.7151V0.952988H86.7622H85.8093V119.562H86.7622ZM86.7622 0.952988V1.90588H147.847V0.952988V9.15527e-05H86.7622V0.952988ZM147.847 0.952988V1.90588C159.14 1.90588 167.679 2.87643 173.524 4.77205L173.818 3.86564L174.112 2.95922C167.983 0.971313 159.207 9.15527e-05 147.847 9.15527e-05V0.952988ZM173.818 3.86564L173.524 4.77205C179.308 6.64797 183.966 10.1317 187.517 15.2504L188.3 14.7072L189.083 14.1639C185.299 8.71083 180.302 4.96683 174.112 2.95922L173.818 3.86564ZM188.3 14.7072L187.52 15.2542C191.056 20.2984 192.849 26.49 192.849 33.8821H193.802H194.755C194.755 26.1715 192.88 19.5799 189.081 14.1602L188.3 14.7072ZM193.802 33.8821H192.849C192.849 40.3248 191.477 45.8429 188.772 50.4727L189.595 50.9535L190.418 51.4342C193.322 46.463 194.755 40.6003 194.755 33.8821H193.802ZM189.595 50.9535L188.775 50.4687C186.053 55.0741 182.311 58.8191 177.532 61.7076L178.025 62.5231L178.518 63.3387C183.556 60.294 187.527 56.3259 190.415 51.4382L189.595 50.9535ZM178.025 62.5231L177.533 61.7073C174.525 63.5226 170.345 65.058 164.949 66.2866L165.161 67.2157L165.373 68.1448C170.873 66.8923 175.269 65.2993 178.518 63.339L178.025 62.5231ZM165.161 67.2157L164.86 68.1197C169.201 69.5669 172.271 70.9862 174.146 72.3544L174.708 71.5847L175.27 70.815C173.153 69.2706 169.859 67.7772 165.462 66.3117L165.161 67.2157ZM174.708 71.5847L174.151 72.358C175.381 73.2437 177.251 75.2239 179.788 78.4083L180.533 77.8145L181.279 77.2208C178.745 74.0405 176.732 71.8675 175.265 70.8114L174.708 71.5847ZM180.533 77.8145L179.794 78.4159C182.377 81.5905 184.046 83.9767 184.859 85.6032L185.711 85.1771L186.564 84.7509C185.651 82.9254 183.868 80.4032 181.272 77.2132L180.533 77.8145ZM185.711 85.1771L184.864 85.6135L202.583 119.999L203.43 119.562L204.277 119.126L186.558 84.7406L185.711 85.1771ZM203.43 119.562V118.61H162.006V119.562V120.515H203.43V119.562ZM162.006 119.562L162.844 119.11L143.265 82.8633L142.426 83.3162L141.588 83.7691L161.167 120.015L162.006 119.562ZM142.426 83.3162L143.269 82.8708C140.783 78.1694 138.486 74.9439 136.35 73.4012L135.792 74.1737L135.234 74.9462C136.981 76.2084 139.107 79.0778 141.584 83.7616L142.426 83.3162ZM135.792 74.1737L136.335 73.3908C133.526 71.4417 130.341 70.47 126.811 70.47V71.4229V72.3758C129.969 72.3758 132.772 73.238 135.249 74.9566L135.792 74.1737ZM126.811 71.4229V70.47H123.575V71.4229V72.3758H126.811V71.4229ZM123.575 71.4229H122.622V119.562H123.575H124.528V71.4229H123.575ZM123.575 119.562V118.61H86.7622V119.562V120.515H123.575V119.562ZM123.575 49.0117V49.9646H139.028V49.0117V48.0588H123.575V49.0117ZM139.028 49.0117V49.9646C140.823 49.9646 144.162 49.3984 148.946 48.3233L148.737 47.3935L148.528 46.4638C143.711 47.5463 140.577 48.0588 139.028 48.0588V49.0117ZM148.737 47.3935L148.924 48.3279C151.582 47.7962 153.754 46.4261 155.403 44.2468L154.643 43.6718L153.883 43.0968C152.512 44.909 150.746 46.02 148.55 46.4592L148.737 47.3935ZM154.643 43.6718L155.393 44.2597C157.092 42.0924 157.942 39.592 157.942 36.7947H156.989H156.036C156.036 39.1755 155.323 41.2598 153.893 43.084L154.643 43.6718ZM156.989 36.7947H157.942C157.942 32.7479 156.649 29.5158 153.963 27.2479L153.349 27.9759L152.734 28.7039C154.902 30.5353 156.036 33.1824 156.036 36.7947H156.989ZM153.349 27.9759L153.963 27.2479C152.591 26.0886 150.682 25.2718 148.319 24.7404C145.949 24.2075 143.062 23.9485 139.675 23.9485V24.9014V25.8543C142.977 25.8543 145.713 26.1078 147.901 26.5997C150.095 27.0932 151.679 27.8135 152.734 28.7039L153.349 27.9759ZM139.675 24.9014V23.9485H123.575V24.9014V25.8543H139.675V24.9014ZM123.575 24.9014H122.622V49.0117H123.575H124.528V24.9014H123.575ZM245.47 99.983L246.384 99.7113L246.181 99.0301H245.47V99.983ZM203.723 99.983V99.0301H203.009L202.808 99.7148L203.723 99.983ZM197.978 119.562V120.515H198.692L198.892 119.831L197.978 119.562ZM160.518 119.562L159.626 119.227L159.142 120.515H160.518V119.562ZM205.098 0.952988V9.15527e-05H204.438L204.206 0.617737L205.098 0.952988ZM245.066 0.952988L245.958 0.617737L245.726 9.15527e-05H245.066V0.952988ZM289.646 119.562V120.515H291.022L290.538 119.227L289.646 119.562ZM251.296 119.562L250.382 119.834L250.585 120.515H251.296V119.562ZM237.784 74.3355V75.2884H239.074L238.695 74.0556L237.784 74.3355ZM224.677 31.6976L225.588 31.4176L224.675 28.4454L223.766 31.4192L224.677 31.6976ZM211.651 74.3355L210.74 74.0571L210.364 75.2884H211.651V74.3355ZM245.47 99.983V99.0301H203.723V99.983V100.936H245.47V99.983ZM203.723 99.983L202.808 99.7148L197.064 119.294L197.978 119.562L198.892 119.831L204.637 100.251L203.723 99.983ZM197.978 119.562V118.61H160.518V119.562V120.515H197.978V119.562ZM160.518 119.562L161.41 119.898L205.99 1.28824L205.098 0.952988L204.206 0.617737L159.626 119.227L160.518 119.562ZM205.098 0.952988V1.90588H245.066V0.952988V9.15527e-05H205.098V0.952988ZM245.066 0.952988L244.174 1.28824L288.754 119.898L289.646 119.562L290.538 119.227L245.958 0.617737L245.066 0.952988ZM289.646 119.562V118.61H251.296V119.562V120.515H289.646V119.562ZM251.296 119.562L252.209 119.291L246.384 99.7113L245.47 99.983L244.557 100.255L250.382 119.834L251.296 119.562ZM237.784 74.3355L238.695 74.0556L225.588 31.4176L224.677 31.6976L223.767 31.9776L236.873 74.6155L237.784 74.3355ZM224.677 31.6976L223.766 31.4192L210.74 74.0571L211.651 74.3355L212.563 74.614L225.589 31.976L224.677 31.6976ZM211.651 74.3355V75.2884H237.784V74.3355V73.3827H211.651V74.3355ZM9.52719 117.953V117H8.5743V117.953H9.52719ZM43.7508 117.953L44.5385 117.417L44.2549 117H43.7508V117.953ZM88.4114 183.568L87.6237 184.105L89.3643 186.662V183.568H88.4114ZM88.4114 117.953V117H87.4585V117.953H88.4114ZM122.959 117.953H123.912V117H122.959V117.953ZM122.959 236.562V237.515H123.912V236.562H122.959ZM88.4114 236.562L87.6242 237.099L87.9079 237.515H88.4114V236.562ZM43.9935 171.432L44.7808 170.896L43.0406 168.344V171.432H43.9935ZM43.9935 236.562V237.515H44.9464V236.562H43.9935ZM9.52719 236.562H8.5743V237.515H9.52719V236.562ZM9.52719 117.953V118.906H43.7508V117.953V117H9.52719V117.953ZM43.7508 117.953L42.9631 118.489L87.6237 184.105L88.4114 183.568L89.1992 183.032L44.5385 117.417L43.7508 117.953ZM88.4114 183.568H89.3643V117.953H88.4114H87.4585V183.568H88.4114ZM88.4114 117.953V118.906H122.959V117.953V117H88.4114V117.953ZM122.959 117.953H122.006V236.562H122.959H123.912V117.953H122.959ZM122.959 236.562V235.61H88.4114V236.562V237.515H122.959V236.562ZM88.4114 236.562L89.1987 236.026L44.7808 170.896L43.9935 171.432L43.2063 171.969L87.6242 237.099L88.4114 236.562ZM43.9935 171.432H43.0406V236.562H43.9935H44.9464V171.432H43.9935ZM43.9935 236.562V235.61H9.52719V236.562V237.515H43.9935V236.562ZM9.52719 236.562H10.4801V117.953H9.52719H8.5743V236.562H9.52719ZM98.1701 197.323L98.1105 196.372L97.1375 196.433L97.2207 197.404L98.1701 197.323ZM133.041 195.138L133.985 195.012L133.868 194.132L132.981 194.187L133.041 195.138ZM137.653 208.083L136.902 208.67L136.904 208.672L137.653 208.083ZM165.889 211.643L166.513 212.364L166.514 212.363L165.889 211.643ZM147.361 187.937L147.152 188.867L147.157 188.868L147.361 187.937ZM112.976 173.536L113.603 172.819L113.6 172.816L112.976 173.536ZM107.879 133.406L107.081 132.885L107.08 132.887L107.879 133.406ZM123.818 120.623L124.198 121.497L124.201 121.495L123.818 120.623ZM187.653 124.426L187.099 125.201L187.105 125.205L187.653 124.426ZM201.893 151.287L201.948 152.238L202.962 152.179L202.839 151.17L201.893 151.287ZM167.345 153.309L166.406 153.471L166.551 154.31L167.401 154.261L167.345 153.309ZM161.52 141.659L160.91 142.391L160.917 142.396L161.52 141.659ZM139.756 140.769L140.363 141.504L140.373 141.495L139.756 140.769ZM139.19 152.419L139.83 151.713L139.818 151.703L139.806 151.693L139.19 152.419ZM151.488 156.788L151.688 155.857L151.682 155.855L151.488 156.788ZM185.873 167.306L185.436 168.153L185.444 168.157L185.873 167.306ZM201.003 180.413L200.185 180.902L200.189 180.908L201.003 180.413ZM181.828 233.65L182.208 234.523L182.214 234.521L181.828 233.65ZM98.1701 197.323L98.2297 198.274L133.101 196.089L133.041 195.138L132.981 194.187L98.1105 196.372L98.1701 197.323ZM133.041 195.138L132.096 195.264C132.863 201.015 134.438 205.518 136.902 208.67L137.653 208.083L138.403 207.496C136.229 204.715 134.729 200.588 133.985 195.012L133.041 195.138ZM137.653 208.083L136.904 208.672C140.888 213.738 146.579 216.237 153.834 216.237V215.284V214.331C147.065 214.331 141.968 212.029 138.402 207.494L137.653 208.083ZM153.834 215.284V216.237C159.202 216.237 163.475 214.992 166.513 212.364L165.889 211.643L165.266 210.923C162.693 213.149 158.93 214.331 153.834 214.331V215.284ZM165.889 211.643L166.514 212.363C169.542 209.735 171.13 206.627 171.13 203.067H170.177H169.224C169.224 205.979 167.954 208.589 165.265 210.924L165.889 211.643ZM170.177 203.067H171.13C171.13 199.673 169.627 196.679 166.769 194.106L166.132 194.815L165.494 195.523C168.03 197.805 169.224 200.312 169.224 203.067H170.177ZM166.132 194.815L166.769 194.106C165.284 192.769 162.908 191.539 159.744 190.38C156.561 189.214 152.497 188.091 147.566 187.007L147.361 187.937L147.157 188.868C152.042 189.942 156.015 191.044 159.089 192.17C162.182 193.303 164.283 194.433 165.494 195.523L166.132 194.815ZM147.361 187.937L147.57 187.008C131.545 183.405 120.272 178.647 113.603 172.819L112.976 173.536L112.349 174.254C119.38 180.399 131.031 185.243 147.152 188.867L147.361 187.937ZM112.976 173.536L113.6 172.816C106.909 167.013 103.573 159.645 103.573 150.639H102.62H101.667C101.667 160.188 105.235 168.085 112.352 174.256L112.976 173.536ZM102.62 150.639H103.573C103.573 144.739 105.267 139.174 108.678 133.926L107.879 133.406L107.08 132.887C103.479 138.426 101.667 144.35 101.667 150.639H102.62ZM107.879 133.406L108.677 133.927C112.117 128.662 117.271 124.511 124.198 121.497L123.818 120.623L123.437 119.749C116.233 122.884 110.76 127.255 107.081 132.885L107.879 133.406ZM123.818 120.623L124.201 121.495C131.15 118.442 140.736 116.883 153.025 116.883V115.93V114.977C140.61 114.977 130.725 116.547 123.434 119.751L123.818 120.623ZM153.025 115.93V116.883C168.086 116.883 179.399 119.701 187.099 125.201L187.653 124.426L188.207 123.65C180.049 117.823 168.277 114.977 153.025 114.977V115.93ZM187.653 124.426L187.105 125.205C194.811 130.62 199.46 139.295 200.947 151.403L201.893 151.287L202.839 151.17C201.305 138.682 196.461 129.45 188.201 123.646L187.653 124.426ZM201.893 151.287L201.837 150.335L167.29 152.358L167.345 153.309L167.401 154.261L201.948 152.238L201.893 151.287ZM167.345 153.309L168.285 153.148C167.345 147.675 165.329 143.544 162.124 140.921L161.52 141.659L160.917 142.396C163.644 144.628 165.512 148.264 166.406 153.471L167.345 153.309ZM161.52 141.659L162.13 140.927C158.993 138.312 154.704 137.065 149.384 137.065V138.018V138.971C154.421 138.971 158.222 140.151 160.91 142.391L161.52 141.659ZM149.384 138.018V137.065C145.007 137.065 141.537 138.004 139.139 140.043L139.756 140.769L140.373 141.495C142.29 139.866 145.239 138.971 149.384 138.971V138.018ZM139.756 140.769L139.15 140.034C136.793 141.978 135.567 144.424 135.567 147.322H136.52H137.473C137.473 145.043 138.404 143.119 140.363 141.504L139.756 140.769ZM136.52 147.322H135.567C135.567 149.555 136.635 151.501 138.573 153.146L139.19 152.419L139.806 151.693C138.185 150.317 137.473 148.865 137.473 147.322H136.52ZM139.19 152.419L138.55 153.125C139.555 154.037 141.157 154.842 143.24 155.583C145.345 156.331 148.034 157.042 151.293 157.721L151.488 156.788L151.682 155.855C148.469 155.186 145.872 154.495 143.878 153.787C141.862 153.071 140.55 152.366 139.83 151.713L139.19 152.419ZM151.488 156.788L151.287 157.72C167.294 161.169 178.651 164.655 185.436 168.153L185.873 167.306L186.31 166.459C179.287 162.838 167.72 159.311 151.688 155.857L151.488 156.788ZM185.873 167.306L185.444 168.157C192.285 171.604 197.172 175.863 200.185 180.902L201.003 180.413L201.821 179.924C198.577 174.499 193.377 170.02 186.302 166.455L185.873 167.306ZM201.003 180.413L200.189 180.908C203.275 185.982 204.823 191.662 204.823 197.97H205.776H206.729C206.729 191.333 205.095 185.308 201.817 179.918L201.003 180.413ZM205.776 197.97H204.823C204.823 205.388 202.775 212.218 198.669 218.483L199.466 219.006L200.262 219.528C204.57 212.956 206.729 205.763 206.729 197.97H205.776ZM199.466 219.006L198.669 218.483C194.57 224.737 188.839 229.503 181.442 232.779L181.828 233.65L182.214 234.521C189.919 231.109 195.947 226.112 200.262 219.528L199.466 219.006ZM181.828 233.65L181.447 232.776C174.053 235.998 164.674 237.632 153.268 237.632V238.585V239.538C164.839 239.538 174.5 237.882 182.208 234.523L181.828 233.65ZM153.268 238.585V237.632C133.156 237.632 119.519 233.749 112.032 226.261L111.358 226.935L110.684 227.608C118.73 235.655 133.033 239.538 153.268 239.538V238.585ZM111.358 226.935L112.032 226.261C104.439 218.668 100.127 209.014 99.1195 197.241L98.1701 197.323L97.2207 197.404C98.2627 209.579 102.743 219.667 110.684 227.608L111.358 226.935ZM9.44629 235.953V235H8.49339V235.953H9.44629ZM100.062 235.953H101.015V235H100.062V235.953ZM100.062 261.439V262.392H101.015V261.439H100.062ZM46.2589 261.439V260.486H45.306V261.439H46.2589ZM46.2589 282.151H45.306V283.104H46.2589V282.151ZM92.214 282.151H93.1669V281.198H92.214V282.151ZM92.214 306.099V307.052H93.1669V306.099H92.214ZM46.2589 306.099V305.146H45.306V306.099H46.2589ZM46.2589 354.562V355.515H47.2118V354.562H46.2589ZM9.44629 354.562H8.49339V355.515H9.44629V354.562ZM9.44629 235.953V236.906H100.062V235.953V235H9.44629V235.953ZM100.062 235.953H99.1091V261.439H100.062H101.015V235.953H100.062ZM100.062 261.439V260.486H46.2589V261.439V262.392H100.062V261.439ZM46.2589 261.439H45.306V282.151H46.2589H47.2118V261.439H46.2589ZM46.2589 282.151V283.104H92.214V282.151V281.198H46.2589V282.151ZM92.214 282.151H91.2611V306.099H92.214H93.1669V282.151H92.214ZM92.214 306.099V305.146H46.2589V306.099V307.052H92.214V306.099ZM46.2589 306.099H45.306V354.562H46.2589H47.2118V306.099H46.2589ZM46.2589 354.562V353.61H9.44629V354.562V355.515H46.2589V354.562ZM9.44629 354.562H10.3992V235.953H9.44629H8.49339V354.562H9.44629ZM88.6231 250.112L87.9493 249.438L88.6231 250.112ZM179.32 249.869L178.648 250.544L178.649 250.546L179.32 249.869ZM188.3 328.51L187.457 328.066L187.456 328.068L188.3 328.51ZM168.074 349.223L168.538 350.055L168.54 350.054L168.074 349.223ZM101.892 350.194L101.474 351.05L101.476 351.051L101.892 350.194ZM115.727 321.31L114.999 321.925L115.003 321.929L115.727 321.31ZM151.892 269.448L151.171 270.072L151.178 270.08L151.892 269.448ZM115.808 269.529L116.532 270.149V270.149L115.808 269.529ZM72.4417 295.339H73.3946C73.3946 276.156 78.7329 261.349 89.2969 250.785L88.6231 250.112L87.9493 249.438C76.9381 260.449 71.4888 275.794 71.4888 295.339H72.4417ZM88.6231 250.112L89.2969 250.785C99.8618 240.221 114.615 234.883 133.688 234.883V233.93V232.977C114.249 232.977 98.9595 238.428 87.9493 249.438L88.6231 250.112ZM133.688 233.93V234.883C153.259 234.883 168.197 240.146 178.648 250.544L179.32 249.869L179.992 249.193C169.083 238.34 153.6 232.977 133.688 232.977V233.93ZM179.32 249.869L178.649 250.546C189.103 260.894 194.386 275.456 194.386 294.368H195.339H196.292C196.292 275.092 190.896 259.988 179.99 249.192L179.32 249.869ZM195.339 294.368H194.386C194.386 308.13 192.056 319.345 187.457 328.066L188.3 328.51L189.143 328.955C193.93 319.876 196.292 308.329 196.292 294.368H195.339ZM188.3 328.51L187.456 328.068C182.905 336.748 176.295 343.518 167.607 348.392L168.074 349.223L168.54 350.054C177.544 345.003 184.419 337.965 189.144 328.953L188.3 328.51ZM168.074 349.223L167.609 348.391C158.996 353.199 148.191 355.632 135.145 355.632V356.585V357.538C148.42 357.538 159.567 355.063 168.538 350.055L168.074 349.223ZM135.145 356.585V355.632C121.862 355.632 110.931 353.516 102.307 349.336L101.892 350.194L101.476 351.051C110.436 355.394 121.674 357.538 135.145 357.538V356.585ZM101.892 350.194L102.309 349.337C93.7562 345.166 86.7966 338.562 81.4337 329.482L80.6133 329.967L79.7928 330.451C85.3254 339.819 92.5515 346.699 101.474 351.05L101.892 350.194ZM80.6133 329.967L81.4337 329.482C76.0947 320.443 73.3946 309.079 73.3946 295.339H72.4417H71.4888C71.4888 309.322 74.2364 321.044 79.7928 330.451L80.6133 329.967ZM109.093 295.5H108.14C108.14 307.548 110.356 316.432 114.999 321.925L115.727 321.31L116.455 320.695C112.252 315.723 110.045 307.402 110.045 295.5H109.093ZM115.727 321.31L115.003 321.929C119.682 327.398 126.028 330.111 133.931 330.111V329.158V328.205C126.515 328.205 120.725 325.685 116.451 320.69L115.727 321.31ZM133.931 329.158V330.111C142.032 330.111 148.416 327.463 152.945 322.085L152.216 321.472L151.487 320.858C147.386 325.728 141.579 328.205 133.931 328.205V329.158ZM152.216 321.472L152.945 322.085C157.491 316.686 159.641 307.188 159.641 293.882H158.688H157.736C157.736 307.114 155.571 316.009 151.487 320.858L152.216 321.472ZM158.688 293.882H159.641C159.641 282.622 157.363 274.197 152.606 268.817L151.892 269.448L151.178 270.08C155.483 274.948 157.736 282.812 157.736 293.882H158.688ZM151.892 269.448L152.613 268.825C147.931 263.41 141.558 260.728 133.607 260.728V261.681V262.634C141.083 262.634 146.9 265.131 151.171 270.072L151.892 269.448ZM133.607 261.681V260.728C125.962 260.728 119.756 263.449 115.084 268.91L115.808 269.529L116.532 270.149C120.813 265.145 126.473 262.634 133.607 262.634V261.681ZM115.808 269.529L115.084 268.91C110.383 274.404 108.14 283.346 108.14 295.5H109.093H110.045C110.045 283.491 112.279 275.119 116.532 270.149L115.808 269.529ZM172.816 354.562H171.863V355.515H172.816V354.562ZM172.816 235.953V235H171.863V235.953H172.816ZM274.354 249.707L273.571 250.25L273.574 250.254L274.354 249.707ZM275.649 285.953L276.469 286.438L276.471 286.434L275.649 285.953ZM264.079 297.523L264.571 298.339L264.572 298.339L264.079 297.523ZM251.215 302.216L251.003 301.287L247.683 302.043L250.914 303.12L251.215 302.216ZM260.762 306.585L260.2 307.354L260.205 307.358L260.762 306.585ZM266.587 312.815L265.842 313.408L265.848 313.416L266.587 312.815ZM271.765 320.177L270.913 320.603L270.918 320.614L271.765 320.177ZM289.484 354.562V355.515H291.047L290.331 354.126L289.484 354.562ZM248.059 354.562L247.221 355.015L247.491 355.515H248.059V354.562ZM228.48 318.316L227.638 318.762L227.642 318.769L228.48 318.316ZM221.846 309.174L222.404 308.401L222.396 308.396L222.389 308.391L221.846 309.174ZM209.629 306.423V305.47H208.676V306.423H209.629ZM209.629 354.562V355.515H210.582V354.562H209.629ZM209.629 284.012H208.676V284.965H209.629V284.012ZM234.791 282.394L234.604 281.459L234.593 281.461L234.582 281.464L234.791 282.394ZM240.697 278.672L239.947 278.084L239.942 278.09L239.937 278.097L240.697 278.672ZM209.629 259.901V258.949H208.676V259.901H209.629ZM172.816 354.562H173.769V235.953H172.816H171.863V354.562H172.816ZM172.816 235.953V236.906H233.901V235.953V235H172.816V235.953ZM233.901 235.953V236.906C245.194 236.906 253.733 237.876 259.578 239.772L259.872 238.866L260.166 237.959C254.036 235.971 245.261 235 233.901 235V235.953ZM259.872 238.866L259.578 239.772C265.362 241.648 270.02 245.132 273.571 250.25L274.354 249.707L275.137 249.164C271.353 243.711 266.356 239.967 260.166 237.959L259.872 238.866ZM274.354 249.707L273.574 250.254C277.11 255.298 278.903 261.49 278.903 268.882H279.856H280.809C280.809 261.172 278.934 254.58 275.134 249.16L274.354 249.707ZM279.856 268.882H278.903C278.903 275.325 277.531 280.843 274.826 285.473L275.649 285.953L276.471 286.434C279.376 281.463 280.809 275.6 280.809 268.882H279.856ZM275.649 285.953L274.828 285.469C272.107 290.074 268.365 293.819 263.586 296.708L264.079 297.523L264.572 298.339C269.609 295.294 273.581 291.326 276.469 286.438L275.649 285.953ZM264.079 297.523L263.587 296.707C260.578 298.523 256.399 300.058 251.003 301.287L251.215 302.216L251.426 303.145C256.927 301.892 261.323 300.299 264.571 298.339L264.079 297.523ZM251.215 302.216L250.914 303.12C255.255 304.567 258.325 305.986 260.2 307.354L260.762 306.585L261.324 305.815C259.207 304.271 255.913 302.777 251.516 301.312L251.215 302.216ZM260.762 306.585L260.205 307.358C261.435 308.244 263.305 310.224 265.842 313.408L266.587 312.815L267.332 312.221C264.799 309.04 262.785 306.867 261.319 305.811L260.762 306.585ZM266.587 312.815L265.848 313.416C268.431 316.591 270.1 318.977 270.913 320.603L271.765 320.177L272.617 319.751C271.705 317.925 269.922 315.403 267.326 312.213L266.587 312.815ZM271.765 320.177L270.918 320.614L288.637 354.999L289.484 354.562L290.331 354.126L272.612 319.741L271.765 320.177ZM289.484 354.562V353.61H248.059V354.562V355.515H289.484V354.562ZM248.059 354.562L248.898 354.11L229.318 317.863L228.48 318.316L227.642 318.769L247.221 355.015L248.059 354.562ZM228.48 318.316L229.322 317.871C226.837 313.169 224.54 309.944 222.404 308.401L221.846 309.174L221.288 309.946C223.035 311.208 225.161 314.078 227.638 318.762L228.48 318.316ZM221.846 309.174L222.389 308.391C219.58 306.442 216.395 305.47 212.865 305.47V306.423V307.376C216.023 307.376 218.826 308.238 221.302 309.957L221.846 309.174ZM212.865 306.423V305.47H209.629V306.423V307.376H212.865V306.423ZM209.629 306.423H208.676V354.562H209.629H210.582V306.423H209.629ZM209.629 354.562V353.61H172.816V354.562V355.515H209.629V354.562ZM209.629 284.012V284.965H225.082V284.012V283.059H209.629V284.012ZM225.082 284.012V284.965C226.877 284.965 230.215 284.398 235 283.323L234.791 282.394L234.582 281.464C229.765 282.546 226.631 283.059 225.082 283.059V284.012ZM234.791 282.394L234.978 283.328C237.636 282.796 239.808 281.426 241.457 279.247L240.697 278.672L239.937 278.097C238.566 279.909 236.8 281.02 234.604 281.459L234.791 282.394ZM240.697 278.672L241.447 279.26C243.146 277.092 243.996 274.592 243.996 271.795H243.043H242.09C242.09 274.176 241.377 276.26 239.947 278.084L240.697 278.672ZM243.043 271.795H243.996C243.996 267.748 242.703 264.516 240.017 262.248L239.402 262.976L238.788 263.704C240.956 265.535 242.09 268.182 242.09 271.795H243.043ZM239.402 262.976L240.017 262.248C238.644 261.089 236.736 260.272 234.373 259.74C232.003 259.207 229.116 258.949 225.729 258.949V259.901V260.854C229.03 260.854 231.767 261.108 233.955 261.6C236.149 262.093 237.733 262.814 238.788 263.704L239.402 262.976ZM225.729 259.901V258.949H209.629V259.901V260.854H225.729V259.901ZM209.629 259.901H208.676V284.012H209.629H210.582V259.901H209.629ZM8.87994 353.953V353H7.92704V353.953H8.87994ZM57.1004 353.953L58.0232 353.715L57.8388 353H57.1004V353.953ZM75.709 426.122L74.7863 426.36L76.632 426.359L75.709 426.122ZM94.2367 353.953V353H93.4976L93.3138 353.716L94.2367 353.953ZM142.295 353.953H143.248V353H142.295V353.953ZM142.295 472.562V473.515H143.248V472.562H142.295ZM112.36 472.562H111.407V473.515H112.36V472.562ZM112.36 382.109H113.313L111.437 381.872L112.36 382.109ZM89.1396 472.562V473.515H89.8788L90.0625 472.799L89.1396 472.562ZM62.0358 472.562L61.1126 472.799L61.296 473.515H62.0358V472.562ZM38.8964 382.109L39.8196 381.872L37.9435 382.109H38.8964ZM38.8964 472.562V473.515H39.8493V472.562H38.8964ZM8.87994 472.562H7.92704V473.515H8.87994V472.562ZM8.87994 353.953V354.906H57.1004V353.953V353H8.87994V353.953ZM57.1004 353.953L56.1777 354.191L74.7863 426.36L75.709 426.122L76.6318 425.884L58.0232 353.715L57.1004 353.953ZM75.709 426.122L76.632 426.359L95.1597 354.19L94.2367 353.953L93.3138 353.716L74.7861 425.885L75.709 426.122ZM94.2367 353.953V354.906H142.295V353.953V353H94.2367V353.953ZM142.295 353.953H141.343V472.562H142.295H143.248V353.953H142.295ZM142.295 472.562V471.61H112.36V472.562V473.515H142.295V472.562ZM112.36 472.562H113.313V382.109H112.36H111.407V472.562H112.36ZM112.36 382.109L111.437 381.872L88.2166 472.326L89.1396 472.562L90.0625 472.799L113.283 382.346L112.36 382.109ZM89.1396 472.562V471.61H62.0358V472.562V473.515H89.1396V472.562ZM62.0358 472.562L62.9589 472.326L39.8196 381.872L38.8964 382.109L37.9732 382.345L61.1126 472.799L62.0358 472.562ZM38.8964 382.109H37.9435V472.562H38.8964H39.8493V382.109H38.8964ZM38.8964 472.562V471.61H8.87994V472.562V473.515H38.8964V472.562ZM8.87994 472.562H9.83283V353.953H8.87994H7.92704V472.562H8.87994ZM124.465 353.953V353H123.512V353.953H124.465ZM161.197 353.953H162.149V353H161.197V353.953ZM161.197 472.562V473.515H162.149V472.562H161.197ZM124.465 472.562H123.512V473.515H124.465V472.562ZM124.465 353.953V354.906H161.197V353.953V353H124.465V353.953ZM161.197 353.953H160.244V472.562H161.197H162.149V353.953H161.197ZM161.197 472.562V471.61H124.465V472.562V473.515H161.197V472.562ZM124.465 472.562H125.418V353.953H124.465H123.512V472.562H124.465ZM145.308 472.562H144.355V473.515H145.308V472.562ZM145.308 353.953V353H144.355V353.953H145.308ZM246.846 367.707L246.063 368.25L246.066 368.254L246.846 367.707ZM248.14 403.953L248.961 404.438L248.963 404.434L248.14 403.953ZM236.571 415.523L237.063 416.339L237.064 416.339L236.571 415.523ZM223.707 420.216L223.495 419.287L220.174 420.043L223.405 421.12L223.707 420.216ZM233.254 424.585L232.692 425.354L232.697 425.358L233.254 424.585ZM239.079 430.815L238.333 431.408L238.34 431.416L239.079 430.815ZM244.257 438.177L243.405 438.603L243.41 438.614L244.257 438.177ZM261.975 472.562V473.515H263.538L262.823 472.126L261.975 472.562ZM220.551 472.562L219.713 473.015L219.983 473.515H220.551V472.562ZM200.972 436.316L200.129 436.762L200.133 436.769L200.972 436.316ZM194.337 427.174L194.895 426.401L194.888 426.396L194.881 426.391L194.337 427.174ZM182.12 424.423V423.47H181.167V424.423H182.12ZM182.12 472.562V473.515H183.073V472.562H182.12ZM182.12 402.012H181.167V402.965H182.12V402.012ZM207.282 400.394L207.096 399.459L207.084 399.461L207.073 399.464L207.282 400.394ZM213.189 396.672L212.439 396.084L212.434 396.09L212.429 396.097L213.189 396.672ZM182.12 377.901V376.949H181.167V377.901H182.12ZM145.308 472.562H146.261V353.953H145.308H144.355V472.562H145.308ZM145.308 353.953V354.906H206.392V353.953V353H145.308V353.953ZM206.392 353.953V354.906C217.686 354.906 226.225 355.876 232.07 357.772L232.364 356.866L232.658 355.959C226.528 353.971 217.753 353 206.392 353V353.953ZM232.364 356.866L232.07 357.772C237.854 359.648 242.511 363.132 246.063 368.25L246.846 367.707L247.629 367.164C243.845 361.711 238.848 357.967 232.658 355.959L232.364 356.866ZM246.846 367.707L246.066 368.254C249.602 373.298 251.395 379.49 251.395 386.882H252.348H253.3C253.3 379.172 251.426 372.58 247.626 367.16L246.846 367.707ZM252.348 386.882H251.395C251.395 393.325 250.023 398.843 247.318 403.473L248.14 403.953L248.963 404.434C251.868 399.463 253.3 393.6 253.3 386.882H252.348ZM248.14 403.953L247.32 403.469C244.599 408.074 240.857 411.819 236.078 414.708L236.571 415.523L237.064 416.339C242.101 413.294 246.073 409.326 248.961 404.438L248.14 403.953ZM236.571 415.523L236.078 414.707C233.07 416.523 228.89 418.058 223.495 419.287L223.707 420.216L223.918 421.145C229.418 419.892 233.814 418.299 237.063 416.339L236.571 415.523ZM223.707 420.216L223.405 421.12C227.747 422.567 230.817 423.986 232.692 425.354L233.254 424.585L233.815 423.815C231.699 422.271 228.404 420.777 224.008 419.312L223.707 420.216ZM233.254 424.585L232.697 425.358C233.927 426.244 235.797 428.224 238.333 431.408L239.079 430.815L239.824 430.221C237.291 427.04 235.277 424.867 233.81 423.811L233.254 424.585ZM239.079 430.815L238.34 431.416C240.922 434.591 242.591 436.977 243.405 438.603L244.257 438.177L245.109 437.751C244.196 435.925 242.413 433.403 239.818 430.213L239.079 430.815ZM244.257 438.177L243.41 438.614L261.128 472.999L261.975 472.562L262.823 472.126L245.104 437.741L244.257 438.177ZM261.975 472.562V471.61H220.551V472.562V473.515H261.975V472.562ZM220.551 472.562L221.39 472.11L201.81 435.863L200.972 436.316L200.133 436.769L219.713 473.015L220.551 472.562ZM200.972 436.316L201.814 435.871C199.328 431.169 197.031 427.944 194.895 426.401L194.337 427.174L193.779 427.946C195.527 429.208 197.653 432.078 200.129 436.762L200.972 436.316ZM194.337 427.174L194.881 426.391C192.071 424.442 188.887 423.47 185.357 423.47V424.423V425.376C188.515 425.376 191.317 426.238 193.794 427.957L194.337 427.174ZM185.357 424.423V423.47H182.12V424.423V425.376H185.357V424.423ZM182.12 424.423H181.167V472.562H182.12H183.073V424.423H182.12ZM182.12 472.562V471.61H145.308V472.562V473.515H182.12V472.562ZM182.12 402.012V402.965H197.574V402.012V401.059H182.12V402.012ZM197.574 402.012V402.965C199.369 402.965 202.707 402.398 207.491 401.323L207.282 400.394L207.073 399.464C202.257 400.546 199.123 401.059 197.574 401.059V402.012ZM207.282 400.394L207.469 401.328C210.128 400.796 212.299 399.426 213.948 397.247L213.189 396.672L212.429 396.097C211.057 397.909 209.291 399.02 207.096 399.459L207.282 400.394ZM213.189 396.672L213.939 397.26C215.637 395.092 216.488 392.592 216.488 389.795H215.535H214.582C214.582 392.176 213.868 394.26 212.439 396.084L213.189 396.672ZM215.535 389.795H216.488C216.488 385.748 215.195 382.516 212.509 380.248L211.894 380.976L211.279 381.704C213.448 383.535 214.582 386.182 214.582 389.795H215.535ZM211.894 380.976L212.509 380.248C211.136 379.089 209.228 378.272 206.864 377.74C204.495 377.207 201.608 376.949 198.221 376.949V377.901V378.854C201.522 378.854 204.258 379.108 206.446 379.6C208.641 380.093 210.225 380.814 211.279 381.704L211.894 380.976ZM198.221 377.901V376.949H182.12V377.901V378.854H198.221V377.901ZM182.12 377.901H181.167V402.012H182.12H183.073V377.901H182.12Z" fill="black" mask="url(#path-1-outside-1_689_472)"/>
</svg>
